<svg width="466" height="641" viewBox="0 0 466 641" fill="none" xmlns="http://www.w3.org/2000/svg">
<path d="M406.472 375.619C401.897 395.615 395.176 415.744 387.906 433.539C379.504 454.104 370.367 471.559 362.969 482.097L362.896 482.17C358.653 489.936 353.449 496.1 347.578 500.858C326.416 518.006 296.929 516.661 272.732 507.284L272.63 507.284C256.046 503.585 240.107 496.545 226.125 486.898C221.209 483.508 216.846 480.006 213.098 476.583C210.792 474.473 196.88 464.842 193.989 465.057C191.567 465.202 188.262 466.03 187.772 468.839C187.539 463.916 186.778 459.118 185.453 454.597C181.826 442.208 173.532 431.189 160.176 428.891C160.966 421.714 153.532 420.844 148.154 421.114C147.338 419.307 146.567 417.489 145.813 415.653C144.861 413.332 144.261 411.879 143.149 410.159C142.048 408.457 140.449 406.503 137.515 403.208L138.242 401.829C139.472 403.258 140.787 404.294 142.3 405.398C144.055 406.68 145.366 407.721 146.458 409.664C147.54 411.593 152.77 421.042 156.124 418.938C158.741 417.295 157.613 410.064 157.132 407.715C156.272 403.509 154.594 398.903 152.243 395.481C150.301 392.651 147.894 390.623 145.104 390.281C144.835 390.281 144.574 390.376 144.436 390.609C143.898 391.487 140.675 396.787 139.205 395.884C136.518 394.229 138.041 378.214 138.307 374.433C138.307 373.874 138.38 373.421 138.38 373.123C138.307 364.511 140.541 344.918 142.492 327.746L142.492 327.621C143.573 318.118 144.567 309.362 145.039 303.652C145.359 299.798 147.289 292.475 150.162 284.176C152.761 276.664 156.132 268.358 159.772 261.106C162.267 256.129 168.765 243.836 174.51 242.262C172.756 246.46 169.589 248.395 171.854 253.691C171.927 253.865 172.042 254.011 172.217 254.091C175.988 255.849 178.223 253.807 180.79 251.282C181.314 250.766 181.853 250.236 182.404 249.759C197.793 236.432 226.959 242.664 247.403 247.033C257.487 249.187 265.486 250.899 268.964 249.607C271.303 248.735 271.432 246.845 270.652 244.739L270.361 244.099C268.199 239.689 263.711 236.02 257.738 233.17C251.338 230.114 243.222 227.993 234.44 226.917C218.292 224.933 198.791 226.328 183.762 232.891L181.44 233.967C180.887 234.236 180.331 234.49 179.752 234.706C179.839 234.626 179.927 234.532 180.007 234.43C181.221 232.963 182.814 231.538 184.233 230.266C188.821 226.159 196.03 220.388 203.716 214.727C210.43 209.782 217.506 204.927 223.505 201.343L223.65 201.234C225.44 199.558 227.743 197.703 230.348 195.793C233.14 193.747 236.268 191.645 239.466 189.642C242.786 187.561 246.197 185.58 249.402 183.868C252.51 182.207 255.419 180.802 257.867 179.809C259.206 179.263 262.737 177.137 267.347 174.168C272.325 170.966 278.571 166.782 284.691 162.554C290.109 158.81 295.442 155.019 299.724 151.836C303.446 149.068 306.373 146.758 307.867 145.334C310.135 145.894 314.22 148.797 319.215 152.992C324.299 157.264 330.323 162.877 336.352 168.732C346.26 178.358 355.899 188.294 365.392 198.326C367.575 200.597 369.581 203.21 371.428 205.759C373.341 208.398 375.172 211.135 376.841 213.936C358.573 213.717 335.835 218.663 326.172 235.934C323.971 239.8 322.073 242.324 324.686 246.709C324.781 246.898 324.955 247.029 325.166 247.073C328.857 247.801 331.111 247.914 333.174 247.385C335.67 246.753 337.799 245.203 339.973 243.897C342.755 242.158 346.528 239.798 352.448 236.806C356.418 234.801 361.121 233.421 365.456 232.47C369.907 231.492 374.81 230.782 379.372 230.893C390.704 231.17 395.892 236.878 398.911 246.87C399.849 249.973 400.554 253.376 401.218 256.941C401.465 258.411 401.632 259.867 401.836 261.34C401.705 263.945 400.929 266.486 400.375 269.029C399.233 267.581 397.572 267.072 395.779 267.533C391.825 268.553 388.575 266.908 384.843 265.013C382.791 263.972 380.598 262.858 378.059 262.044C375.514 261.226 372.625 260.708 369.188 260.858C365.607 261.018 360.173 261.912 354.492 263.562C345.588 266.153 330.337 272.369 329.898 283.48C329.898 285.3 331.678 287.079 333.207 287.827C334.9 288.65 336.847 288.726 338.473 287.697C340.212 286.592 341.122 284.533 341.599 282.6C343.099 285.865 346.285 288.113 349.625 289.214C354.588 290.848 360.45 290.192 364.244 286.337C367.3 283.231 368.252 278.903 368.209 274.675C369.342 274.355 372.343 273.622 376.507 273.582C380.676 273.51 389.449 274.687 395.718 277.463C396.892 277.979 400.225 277.783 401.078 275.683C400.583 279.926 401.916 281.677 402.487 283.223C403.371 285.611 404.21 287.863 404.999 290.027C409.52 302.429 412.393 311.945 412.429 328.05C412.429 342.894 410.157 359.206 406.402 375.615L406.472 375.619ZM187.869 470.605C188.524 473.48 191.226 476.33 193.522 478.024C197.495 480.742 201.42 483.565 205.345 486.355C232.173 505.45 261.547 526.358 300.419 529.138C343.025 532.184 369.761 498.596 387.125 464.264C386.456 466.359 385.894 468.505 385.379 470.644C383.57 478.139 381.629 488.788 380.353 499.729C379.316 508.615 378.716 517.698 378.984 525.443C378.679 527.614 379.704 529.755 381.583 530.887C384.903 532.882 389.201 530.887 389.801 527.048C391.113 522.296 392.373 516.866 393.537 511.212C394.854 504.799 396.049 498.099 397.058 491.776C398.23 484.401 399.145 477.524 399.7 472.197C400.259 466.817 400.453 462.999 400.179 461.824C400.673 458.008 397.177 454.933 393.494 455.819C391.54 456.284 389.999 457.797 389.494 459.741C389.421 459.741 389.362 459.814 389.297 459.864C396.001 445.985 401.543 431.562 406.643 417.03C411.918 402.001 416.093 386.391 419.118 370.754C421.841 356.686 423.749 342.091 423.914 327.746C424.023 318.293 423.091 308.674 421.018 299.448C419.982 294.834 418.719 290.627 417.318 286.954C415.864 283.148 414.259 279.91 412.6 277.392C412.52 277.225 412.44 277.116 412.324 276.978C411.728 276.124 411.154 275.374 410.472 274.584C409.343 272.118 409.694 268.235 410.013 265.636L410.019 265.564C412.041 252.94 412.375 238.1 411.491 222.403C410.493 204.688 407.94 185.862 404.516 167.887C400.509 146.851 395.294 126.951 389.956 111.301C384.586 95.5509 379.082 84.0942 374.554 80.09C374.482 80.09 374.627 80.09 374.627 80.09C374.736 79.8356 374.773 79.6383 374.773 79.3614C374.77 75.504 374.768 63.5948 370.406 55.9208C370.042 55.2811 369.622 54.4572 369.185 53.5674C368.308 51.7703 367.482 49.9463 366.596 48.1514C366.21 47.3772 365.876 46.7316 365.617 46.3304C356.11 31.4658 344.055 16.5111 328.324 7.9429C314.909 0.633094 300.821 -0.982035 285.792 0.501734L284.881 0.574488C282.245 0.756233 276.077 1.19274 268.731 3.66811C261.407 6.13913 252.915 10.6456 245.605 18.9754C220.232 16.4447 193.798 17.4316 169.636 26.231C134.752 38.9313 101.585 59.4788 78.1191 88.6199C56.9116 114.956 45.5413 146.058 45.9179 179.953C46.5722 238.686 53.6599 258.997 60.162 277.628C62.058 283.058 63.9037 288.353 65.5256 294.419C67.1431 300.486 68.537 307.332 69.5279 315.877C70.8714 327.504 72.6972 339.276 75.5492 350.636C77.8137 359.662 80.9071 369.156 85.5416 377.261C89.4593 384.105 98.1144 394.569 105.894 403.426C113.654 412.264 120.543 419.508 120.97 419.958C121.042 420.03 121.079 420.059 121.137 420.095C122.685 427.693 128.059 433.912 136.415 432.463C139.36 431.954 142.165 430.58 144.645 428.946C145.103 429.266 145.563 429.593 146.016 429.927C140.58 431.656 135.62 434.704 131.3 438.397C111.579 455.266 101.704 488.457 108.997 513.362C112.288 524.598 119.402 534.847 131.076 538.319C142.723 541.783 154.298 537.094 163.177 529.497C179.344 515.666 188.329 491.582 187.861 470.575L187.869 470.605ZM124.29 404.815C124.152 405.252 124.007 405.66 123.839 406.084C117.699 399.419 111.637 392.621 105.895 385.606C103.606 382.812 101.458 380.079 99.6358 377.578C98.0081 375.35 96.6277 373.293 95.6201 371.531C92.6301 366.304 90.4348 360.442 88.6893 354.694C86.6508 347.972 85.1391 341.162 84.1439 334.203C82.6187 323.561 82.3275 312.841 79.8798 302.323C78.2782 295.454 75.7052 288.048 71.1608 279.286C68.8919 272.378 66.9182 264.863 65.2301 257.119C63.3821 248.634 61.8792 239.872 60.7131 231.32C59.4169 221.822 58.5363 212.582 58.0624 204.271C57.568 195.565 57.5175 187.876 57.8955 181.984C60.6544 139.395 80.6458 98.4772 112.219 69.8145C146.377 38.8021 190.075 25.2879 235.809 29.2136C236.945 29.3082 238.067 29.4176 239.182 29.534C229.156 37.373 223.543 50.9448 221.47 63.1915C218.361 81.5755 222.059 101.159 232.759 116.556C244.856 133.962 263.639 143.245 284.096 146.938C283.086 147.779 281.112 149.205 278.47 151.03C275.121 153.344 270.729 156.282 265.875 159.478C258.195 164.535 249.336 170.241 241.577 175.187C231.638 181.52 223.509 186.599 221.979 187.45C180.512 210.563 158.933 234.719 147.237 260.365C135.542 286.011 133.731 313.128 131.794 342.187C131.154 351.771 130.497 361.572 129.47 371.577C128.444 381.592 127.038 391.834 124.902 402.308C124.727 403.154 124.537 403.991 124.29 404.815ZM139.228 447.712C144.844 442.909 152.429 439.084 159.946 441.317C167.456 443.545 171.718 450.892 173.791 457.972C179.732 478.265 171.335 506.499 155.267 520.246C149.652 525.05 142.065 528.866 134.55 526.633C127.041 524.403 122.778 517.066 120.704 509.982C114.763 489.692 123.161 461.455 139.228 447.712ZM322.943 53.5514C327.786 53.8786 328.689 48.6078 328.963 44.89C328.963 44.512 328.703 44.1772 328.324 44.1562C317.658 43.3746 315.832 38.6556 309.009 33.3145C305.3 30.4087 300.231 27.5587 295.573 26.7227C291.911 26.0611 288.627 26.635 285.484 28.6342C284.215 29.444 283.106 30.3919 282.086 31.3195C274.56 38.1757 283.523 48.2604 289.691 45.0791C290.755 44.5266 291.814 43.4365 292.329 42.3592L292.329 42.2287C292.715 39.8463 293.648 37.3902 296.527 37.8555C299.713 38.3717 304.224 41.8533 308.789 45.3755C311.177 47.2526 313.725 49.2077 316.29 50.8296C318.706 52.3548 320.97 53.4204 322.905 53.5506L322.943 53.5514ZM297.871 62.037C299.863 64.2441 302.228 66.4445 304.501 68.3449C307.174 70.5803 309.727 72.4067 311.404 73.3482C317.322 76.6763 324.653 79.2895 331.503 77.8697C341.537 75.7883 346.023 65.9302 343.966 56.4009C343.392 53.7445 342.308 51.0865 340.688 48.5907C340.557 48.3872 340.339 48.2784 340.099 48.2784C336.282 48.3583 331.643 49.1004 331.742 53.8709C331.815 56.0576 332.668 57.8923 333.004 59.9693C333.106 60.5799 333.113 61.109 332.931 61.4798C332.502 62.5055 330.751 62.7717 326.079 61.5525C321.294 60.2854 313.529 57.4329 301.152 52.2176C298.508 51.1002 295.902 50.686 293.225 51.9851C293.021 52.0869 292.876 52.2831 292.847 52.5158C292.447 55.6709 295.87 59.8653 297.846 62.0557L297.871 62.037ZM72.444 557.391C69.8639 559.812 66.783 563.087 63.4694 566.85C59.8651 570.942 55.974 575.625 52.145 580.432C50.1589 582.635 55.857 587.962 55.0202 589.032C53.1715 587.869 51.8402 583.583 46.161 583.583L6.76981 583.583C3.83789 583.583 1.7918 584.702 0.635899 586.94C-0.522183 589.178 -0.0987155 591.378 1.90848 593.538L44.506 638.454C44.9712 638.912 45.7794 639.377 46.9375 639.843C48.0956 640.301 48.9842 640.534 49.6007 640.534L78.0783 640.534C80.8561 640.534 82.8234 639.531 83.9814 637.525C85.1395 635.518 85.022 633.435 83.6327 631.275L59.1698 593.606C64.4244 587.983 69.6403 582.32 74.8019 576.618C79.8631 571.027 84.7829 565.484 89.0815 560.466C115.76 529.332 80.0359 548.01 72.444 557.391ZM334.783 346.652C333.392 347.808 331.979 348.972 330.277 349.644C326.45 351.15 323.963 351.488 322.1 351.204C320.251 350.921 318.996 350.015 317.642 349.038C315.038 347.154 313.075 346.11 309.797 345.76C306.184 345.374 302.776 346.304 299.339 347.272C295.55 348.339 291.501 349.537 287.686 347.897C285.332 346.89 283.449 345.202 281.584 343.494C279.832 341.961 277.732 339.727 275.235 339.849C273.147 339.95 271.294 341.773 270.082 343.317C269.77 343.92 269.625 344.816 269.625 345.49C269.625 351.627 279.44 356.777 284.321 358.708C286.387 359.526 289.428 360.56 291.653 360.565C293.712 360.568 295.876 359.83 298.149 359.052C300.433 358.272 302.839 357.449 305.252 357.356C307.999 357.254 309.807 357.48 311.134 357.872C312.455 358.258 313.31 358.814 314.159 359.362C315.493 360.222 316.814 361.073 319.59 361.384C324.374 361.914 330.827 362.193 335.179 359.867C336.826 358.985 338.439 358.068 340.011 357.056C341.221 356.285 341.282 356.351 342.659 356.273C344.462 356.171 346.245 356.011 348.04 355.822C352.74 355.306 357.422 353.24 360.015 349.11C362.473 345.199 362.303 340.644 360.575 336.517C360.502 336.321 360.363 336.168 360.174 336.096C356.358 334.583 354.993 337.419 353.756 340.026L353.756 340.098C353.095 341.483 352.477 342.777 351.621 342.858L351.505 342.858C349.599 343.381 347.65 343.345 345.699 343.199C342.325 342.981 339.719 343.018 336.874 345.012C336.169 345.506 335.495 346.064 334.809 346.635L334.783 346.652ZM235.262 300.864C240.546 298.321 243.158 293.517 242.839 287.723C248.945 284.624 254.287 288.064 258.883 292.064C261.864 294.659 267.606 293.81 270.171 290.888C270.884 290.072 271.344 289.091 271.375 287.997C271.455 285.209 268.791 282.994 266.645 281.654C262.46 279.037 256.589 278.076 251.754 277.303C250.809 277.151 249.948 277.013 249.199 276.875C248.472 276.737 247.872 276.606 247.448 276.453C237.9 273.164 227.221 271.293 217.365 274.357C210.439 276.51 204.298 280.574 197.04 281.881C192.805 282.641 188.408 282.368 183.81 279.969L183.578 279.889C181.022 279.475 177.379 279.446 175.648 281.746C173.876 284.103 175.292 287.184 177.728 288.448C186.838 296.791 200.381 289.956 211.171 289.323C211.585 292.478 212.844 295.069 214.627 297.095C219.554 302.685 228.631 304.048 235.262 300.864ZM396.136 222.787L395.459 222.598C390.325 214.767 383.859 205.421 376.728 195.938C370.899 188.183 364.622 180.334 358.265 173.138C352.808 166.964 347.292 161.268 341.942 156.528C337.14 152.274 332.473 148.786 328.108 146.412C326.719 144.996 325.178 143.941 323.527 142.868C322.077 141.922 320.327 140.852 319.581 139.222C330.179 139.578 341.897 136.83 350.974 131.298C364.231 123.227 370.413 110.533 371.321 95.3299C374.829 103.946 378.355 114.45 381.615 125.813C385.017 137.666 388.135 150.459 390.653 163.019C393.087 175.159 394.96 187.074 395.988 197.71C396.928 207.422 397.165 216.073 396.483 222.861L396.127 222.788L396.136 222.787ZM330.958 102.312C343.739 101.072 356.23 95.8107 363.996 85.2353C360.743 102.494 352.934 122.82 333.338 126.008C300.653 131.327 254.499 85.0123 250.461 56.7763C252.915 55.0657 255.01 52.8423 257.376 51.0081C258.264 50.3174 259.147 49.7244 260.018 49.3122C262.091 67.7782 272.399 82.8304 288.197 92.4004C300.773 100.021 316.297 103.736 330.958 102.312ZM254.427 38.6906C252.395 40.7697 250.301 42.9985 248.088 44.8821C246.652 38.9754 250.76 32.3747 254.458 28.1088C259.691 22.0748 267.113 16.9434 274.641 14.2587L276.578 13.6198C303.222 5.64478 328.846 22.3813 346.523 40.9215C351.325 45.9603 355.288 52.1708 356.789 59.0357C359.146 69.8292 354.789 79.4062 344.997 84.583C338.153 88.2034 329.908 89.0918 322.275 88.7086C306.854 87.9359 291.195 80.3886 280.685 69.1C273.625 61.5205 267.229 50.0278 271.041 39.4625C271.87 37.1667 273.036 35.331 274.551 33.4511C277.017 30.4465 279.224 28.4504 277.802 24.2281C277.73 24.039 277.599 23.8863 277.417 23.8136C274.408 22.5399 270.499 24.374 266.413 27.484C262.363 30.5628 258.128 34.9008 254.427 38.6906ZM259.054 97.6132C267.688 107.62 277.751 115.551 286.488 121.38C294.69 126.856 301.728 130.48 305.32 132.238C302.7 132.412 300.145 132.856 297.52 133.316C291.628 134.344 285.361 135.438 277.31 133.549C269.248 131.655 259.384 126.769 246.291 115.837C241.807 112.094 238.067 106.969 235.258 101.057C227.205 84.099 226.988 61.2676 237.863 45.4456C238.743 60.2455 241.282 70.111 244.79 77.6389C248.34 85.2657 252.878 90.4935 257.688 96.0353L259.054 97.6132ZM327.339 584.755C326.895 584.544 326.713 584.029 326.881 583.053C327.055 581.992 327.639 580.42 328.71 578.163C329.059 577.419 329.549 575.973 330.123 574.029C330.756 571.875 331.51 569.097 332.314 565.978C334.575 557.211 336.654 548.38 338.68 539.556C339.138 537.544 339.729 535.635 340.367 533.677C340.585 533.008 340.781 532.423 340.927 531.893C341.596 529.523 341.458 528.279 338.874 527.55C338.707 527.477 338.525 527.477 338.351 527.477C332.844 527.68 321.22 559.731 319.262 565.201C317.156 571.092 315.408 576.437 314.38 580.085C314.06 581.231 313.799 582.222 313.628 583.011C313.461 583.765 313.366 584.347 313.359 584.728C310.958 590.829 309.691 598.529 312.763 604.628C315.176 609.428 319.76 611.923 325.103 611.319C332.41 610.494 338.724 604.396 342.883 598.735C359.072 593.723 380.217 597.214 400.402 603.38C419.206 609.123 437.181 617.188 449.551 622.866L465.865 622.866C458.636 605.833 413.715 595.518 396.932 591.984C383.881 589.235 371.068 587.164 360.599 585.792C356.127 585.204 352.075 584.748 348.611 584.419C344.902 584.062 341.871 583.859 339.728 583.801C337.029 583.728 334.454 584.143 332.276 584.491C331.153 584.673 328.358 585.221 327.353 584.739L327.339 584.755Z" fill="#373435" fill-opacity="0.13"/>
<path d="M257.222 403.834C258.133 403.194 258.974 402.68 259.767 402.286C260.553 401.901 261.291 401.632 261.999 401.485C271.767 399.486 280.835 397.85 289.161 396.521C298.474 395.039 306.864 393.941 314.264 393.158C323.03 392.229 330.407 391.736 336.306 391.556C343.377 391.338 348.317 391.556 350.969 392.029C351.515 392.123 352.054 392.283 352.506 392.625C352.957 392.967 353.333 393.509 353.57 394.372C353.831 395.339 353.933 396.686 353.788 398.55C353.643 400.413 353.265 402.791 352.562 405.828C352.25 405.995 351.966 406.141 351.715 406.258C351.446 406.381 351.206 406.482 350.988 406.548C350.777 406.62 350.588 406.671 350.421 406.7C350.261 406.7 350.116 406.7 349.985 406.7C349.44 406.7 348.79 406.773 348.003 406.926C347.226 407.086 346.328 407.304 345.269 407.573C340.349 408.797 331.86 410.917 317.404 410.936C312.462 411.052 307.178 411.162 302.004 411.264L279.13 411.706L273.276 411.831C272.208 411.831 271.203 411.75 270.21 411.649C269.06 411.532 267.924 411.408 266.697 411.474C265.467 411.547 264.149 411.794 262.638 412.41C262.566 412.41 262.558 412.409 262.514 412.482C262.441 412.482 262.435 412.555 262.406 412.563C262.042 412.912 261.751 413.268 261.546 413.637C261.328 414.022 261.198 414.421 261.139 414.825C261.052 415.428 261.136 416.034 261.364 416.634C261.604 417.252 261.997 417.864 262.521 418.452C263.001 418.99 263.594 419.511 264.272 420.007C264.963 420.516 265.752 420.998 266.609 421.449C268.719 422.562 271.266 423.467 273.854 423.99C276.255 424.477 278.698 424.637 280.874 424.332C283.17 424.019 284.738 423.649 285.892 423.275C287.05 422.904 287.796 422.531 288.445 422.207C289.478 421.691 290.244 421.304 292.397 421.308C294.584 421.311 298.186 421.708 304.891 422.758L307.798 423.223C315.662 424.496 323.894 425.832 331.926 424.293C334.296 423.835 336.249 422.787 338.263 421.704C339.549 421.014 340.863 420.303 342.275 419.763C343.872 419.153 345.125 418.966 346.242 419.003C347.361 419.076 342.611 419.308 343.689 419.591C344.444 419.787 345.237 420.005 346.15 420.165C346.688 420.383 347.207 420.5 347.725 420.507C348.248 420.509 348.775 420.398 349.309 420.158C349.818 419.933 350.329 419.584 350.863 419.116C351.386 418.65 351.943 418.06 352.537 417.333C353.571 416.061 360.317 414.782 361.236 413.471C362.158 412.159 363.007 410.809 363.747 409.399C364.49 407.977 365.121 406.495 365.603 404.935C367.796 402.254 367.887 397.731 373.399 392.429C374.277 391.782 375.172 391.014 376.017 390.154C376.788 389.369 377.519 388.503 378.158 387.58C378.746 386.735 379.26 385.835 379.657 384.899C380.028 384.033 380.304 383.13 380.449 382.209C380.849 379.697 380.777 377.935 380.348 376.757C379.904 375.533 379.084 374.925 378.033 374.756C376.513 374.516 374.509 375.33 372.483 376.515C370.478 377.69 368.451 379.221 366.849 380.433C365.658 381.334 364.713 382.048 364.304 382.233C362.336 382.415 359.43 382.029 356.138 381.593C354.011 381.31 351.723 381.002 349.415 380.814C347.094 380.625 344.738 380.553 342.479 380.72C338.906 380.996 335.317 381.236 331.725 381.447C328.112 381.665 324.508 381.861 320.906 382.057C309.113 382.697 297.311 383.339 286.053 384.648C274.789 385.959 264.068 387.934 254.445 391.25L253.433 391.606L252.494 391.926C250.986 392.428 249.524 392.921 248.166 393.653C246.798 394.386 245.535 395.364 244.436 396.841C243.767 397.742 243.315 398.685 243.062 399.648C242.793 400.67 242.75 401.711 242.888 402.739C243.033 403.806 243.382 404.863 243.903 405.869C244.434 406.906 245.149 407.891 246.001 408.785C246.073 408.858 246.117 408.887 246.19 408.923C246.262 408.923 246.335 408.996 246.415 408.996L250.055 409.366C250.142 409.366 250.236 409.366 250.323 409.366C250.403 409.366 250.483 409.294 250.556 409.236C251.875 408.082 253.081 407.049 254.195 406.134C255.306 405.223 256.314 404.443 257.242 403.798L257.222 403.834ZM349.358 429.67C348.326 430.302 347.831 434.191 344.657 438.284L344.446 438.655C341.532 443.677 334.248 445.932 326.373 446.236C318.425 446.542 309.912 444.873 304.631 442.051L304.013 441.709C299.482 439.081 290.625 435.52 284.01 435.04C282.207 434.91 280.556 435.041 279.191 435.411C277.767 435.833 276.649 436.586 275.971 437.754C275.586 438.408 275.353 439.194 275.288 440.114C275.288 440.288 275.36 440.463 275.513 440.558C278.015 442.078 284.053 444.088 288.366 445.52C289.781 445.993 291.007 446.402 291.887 446.722C303.466 454.752 316.149 457.089 328.233 454.676C340.834 452.16 347.027 444.466 356.375 432.675C357.741 430.95 357.969 429.53 357.538 428.489C357.262 427.813 356.702 427.307 356.004 426.996C355.342 426.698 354.542 426.574 353.73 426.632C351.979 426.756 350.126 427.729 349.358 429.67Z" fill="#373435" fill-opacity="0.13"/>
</svg>
