<svg width="809" height="902" viewBox="0 0 809 902" fill="none" xmlns="http://www.w3.org/2000/svg">
<path d="M174.084 561.005C178.738 559.422 183.522 558.258 188.437 557.512C188.682 554.49 189.598 551.663 191.039 549.173C197.47 536.873 212.411 528.466 228.22 522.746C241.759 517.845 256.081 514.624 263.852 512.99C269.525 511.793 275.01 510.759 280.147 509.884C285.384 508.993 291.097 508.155 296.756 507.416L302.546 506.663L301.684 503.098C300.018 496.135 299.267 492.964 298.932 491.495C298.756 490.731 298.643 490.29 298.573 490.044C296.677 492.636 294.256 494.878 291.398 496.6C290.516 497.128 289.61 497.587 288.687 497.967C286.688 498.852 284.6 499.451 282.473 499.786C277.571 500.556 272.642 499.782 268.312 497.759C263.975 495.733 260.201 492.427 257.628 488.144C256.388 486.079 255.433 483.771 254.836 481.253C254.092 478.545 253.506 476.272 253.066 474.409C252.688 472.82 252.113 470.117 251.375 466.527C250.86 464.029 250.304 461.106 249.721 457.886C249.105 454.485 248.591 451.472 248.176 448.861C247.61 445.318 247.143 442.151 246.776 439.432C246.342 436.216 245.99 433.309 245.733 430.835C245.463 428.209 245.268 425.801 245.173 423.756C245.092 422.052 245.098 420.462 245.173 419.017C245.173 417.148 245.419 415.316 245.849 413.543C246.358 411.416 247.138 409.408 248.143 407.554L248.004 407.215C245.464 400.86 243.052 394.289 240.711 387.62C238.189 380.429 236.003 373.389 234.158 366.549C232.246 359.459 230.573 352.183 229.143 344.796C227.869 338.211 226.786 331.516 226.006 324.808C225.243 318.255 224.767 311.332 224.683 304.018C224.62 299.043 224.834 294.137 225.32 289.385C225.81 284.611 226.583 279.804 227.655 275.03C228.221 272.52 228.814 270.222 229.427 268.149C230.197 265.549 230.936 263.333 231.633 261.504C232.409 259.473 233.329 257.379 234.373 255.263C235.047 253.898 235.799 252.53 236.627 251.172C235.833 245.639 235.349 239.736 235.139 233.572C234.893 226.411 235.012 219.062 235.427 211.662C235.855 204.007 236.647 195.867 237.719 187.485C238.857 178.588 240.233 170.012 241.77 161.94C243.49 152.909 245.554 143.774 247.836 134.914C250.241 125.559 252.695 117.227 255.066 110.271C257.683 102.592 260.414 95.8138 263.113 90.3446C264.474 87.5902 265.892 85.0713 267.366 82.8162C267.75 76.3188 269.06 66.846 273.549 58.9469C273.612 58.8525 273.548 58.9471 273.662 58.7081C274.343 57.3894 273.724 58.7082 274.058 57.9988C274.93 56.2198 274.058 57.9987 274.954 56.0329C275.325 55.2481 275.694 54.4622 276.3 53.2379L277.058 51.8169L276.996 51.754C277.102 51.5465 277.498 50.9126 278.232 49.7681C282.883 42.4934 288.24 35.1132 294.519 28.3253C301.238 21.0632 308.901 14.6029 317.718 9.80031C325.609 5.49891 333.678 2.87858 341.961 1.5542C349.724 0.312198 357.531 0.236949 365.463 0.988436L365.465 0.925489L366.253 0.988436L366.844 1.05138C368.181 1.152 370.197 1.34032 373.267 1.82518C376.671 2.35971 380.741 3.23313 385.044 4.68391C389.454 6.17116 394.291 8.31899 399.248 11.4262C401.51 12.8436 403.765 14.4424 405.974 16.2447C415.183 15.6725 424.438 15.6473 433.56 16.3768C446.246 17.398 458.922 19.8738 471.229 24.3557C488.486 30.6374 505.318 38.956 520.651 49.4096C534.987 59.1833 548.083 70.8619 559.099 84.5396C569.768 97.7897 577.953 112.28 583.408 127.751C588.782 142.996 591.492 159.205 591.304 176.136C590.7 230.296 584.021 249.438 577.896 266.995L577.896 267.07C577.795 267.359 577.682 267.649 577.569 267.935C576.247 271.724 574.963 275.493 573.735 280.092C573.666 280.343 573.596 280.595 573.521 280.837C573.005 282.843 572.528 284.916 572.112 287.093C571.647 289.544 571.21 292.394 570.818 295.777C570.22 300.975 569.485 306.345 568.547 311.906C567.597 317.545 566.481 323.076 565.143 328.409C564.053 332.753 562.706 337.37 560.967 342.163C559.149 347.189 557.016 352.057 554.479 356.49C552.452 360.034 549.598 364.067 546.384 368.202C543.17 372.331 538.829 377.429 534.543 382.309C530.273 387.172 526.469 391.328 523.975 394.013C523.503 395.196 522.979 396.356 522.389 397.483C527.986 405.325 532.301 414.345 535.093 423.73C539.589 438.838 540.224 455.366 535.976 469.871C535.819 470.405 535.655 470.942 535.485 471.475C536.193 471.676 536.901 471.896 537.606 472.142C545.302 474.825 556.907 482.413 562.573 488.346C563.796 489.511 565.112 490.839 566.494 492.297C568.44 494.349 570.018 496.064 571.251 497.465C571.792 498.082 573.536 500.155 576.301 503.472L577.721 505.179L605.377 505.179C609.937 505.179 614.174 506.252 618.087 508.39C622.561 510.84 625.975 514.339 628.324 518.884C630.93 523.924 631.709 529.158 630.665 534.583C629.757 539.269 627.575 543.476 624.114 547.204L623.648 547.687L611.87 560.103C614.717 559.342 617.379 558.719 619.849 558.239C626.65 556.911 633.727 556.247 641.08 556.247C646.385 556.247 651.668 556.524 656.919 557.078C662.267 557.644 667.139 558.474 671.535 559.572C681.669 562.107 690.226 566.266 697.206 572.046C700.892 575.1 704.145 578.676 706.967 582.771C709.671 586.7 711.885 591.017 713.602 595.714C716.7 604.188 718.251 613.954 718.251 625.004L718.251 654.661C719.606 655.816 720.804 657.059 721.839 658.392C722.255 658.92 722.645 659.478 723.017 660.057C723.933 659.981 724.921 659.918 725.98 659.849C728.552 659.698 730.665 659.616 732.323 659.616L735.549 659.748C737.346 659.824 738.476 659.874 738.909 659.906C739.729 659.969 740.827 660.069 742.191 660.22C743.489 660.359 744.601 660.497 745.541 660.629C746.088 660.704 746.897 660.836 747.969 661.019C749.225 661.233 747.849 661.021 750.912 661.572C751.711 661.717 752.609 661.887 753.6 662.088C754.622 662.296 755.5 662.478 756.243 662.648L759.092 663.279C759.746 663.442 760.621 663.674 761.729 663.977C762.207 664.109 763.131 664.386 764.488 664.799L767.05 665.576C767.885 665.859 767.112 665.577 768.22 666.023C768.535 666.124 768.854 666.224 769.167 666.337L771.199 667.08L772.664 667.634C773.098 667.803 772.891 667.728 773.281 667.898C775.555 668.702 777.768 669.747 779.912 671.035C782.137 672.371 784.167 673.883 786.001 675.567L786.083 675.642C786.448 675.982 786.796 676.334 787.13 676.693C788.249 677.806 789.274 678.955 790.205 680.14C791.376 681.634 792.505 683.362 793.596 685.319C794.399 686.765 795.069 688.121 795.602 689.376C796.206 690.8 796.73 692.256 797.168 693.741C797.746 695.701 798.159 697.501 798.407 699.13C798.696 701.048 798.846 702.916 798.846 704.731L798.846 725.271C798.846 727.697 798.626 730.115 798.182 732.525L798.66 733.285C800.795 736.729 802.529 740.254 803.858 743.858C805.147 747.356 806.112 750.982 806.754 754.736C807.398 758.496 807.721 762.254 807.721 766C807.721 770.728 807.231 775.484 806.24 780.266C805.259 785.017 803.776 789.564 801.795 793.903C799.683 798.531 797.085 802.765 794.007 806.598C790.918 810.446 787.365 813.901 783.354 816.956C779.83 819.641 775.901 822.026 771.568 824.111C767.527 826.054 763.195 827.662 758.58 828.926C754.161 830.14 749.869 831.006 745.712 831.526C741.38 832.067 736.918 832.343 732.328 832.343C731.378 832.343 729.285 832.28 726.039 832.16C724.271 832.091 722.781 832.028 721.559 831.959C721.899 834.084 722.074 836.25 722.074 838.443L722.074 847.676C722.074 848.566 722.011 849.709 721.917 851.094C721.917 851.477 721.754 852.607 721.521 854.431C720.726 860.621 718.919 866.486 716.293 871.77C713.555 877.278 709.911 882.291 705.572 886.53C700.9 891.094 695.395 894.808 689.293 897.362C683.34 899.856 676.887 901.242 670.15 901.242C669.441 901.242 668.546 901.179 667.459 901.129L666.912 901.066C666.742 901.066 665.75 900.928 663.862 900.689C623.452 895.494 582.443 891.569 540.836 888.918C499.185 886.264 457.717 884.932 416.436 884.929C375.217 884.923 333.306 886.25 290.702 888.909C248.927 891.519 206.43 895.489 163.207 900.822C162.531 900.904 161.516 900.992 160.171 901.073C158.74 901.161 157.724 901.212 157.115 901.212C150.323 901.212 143.811 899.785 137.782 897.219C131.575 894.575 126.064 890.796 121.457 886.19C117.293 882.026 113.769 877.028 111.074 871.473C108.462 866.09 106.696 860.271 105.958 854.281C105.869 853.576 105.781 852.457 105.68 850.913C105.586 849.388 105.536 848.29 105.536 847.654L105.536 838.42C105.536 836.142 105.725 833.895 106.09 831.693C104.163 831.995 102.317 832.145 100.556 832.145L79.8443 832.145C76.3881 832.145 72.9587 831.662 69.5647 830.695C66.7286 829.888 63.9031 828.686 61.0883 827.094C60.4846 826.798 59.8922 826.478 59.3074 826.119L58.4998 825.553L57.8964 825.163C56.618 824.287 55.3123 823.265 53.9829 822.104C53.2572 821.474 52.5568 820.816 51.8826 820.131C51.3733 819.66 50.8782 819.157 50.4072 818.621C49.1759 817.22 47.9736 815.59 46.8077 813.731C45.8952 812.279 45.0878 810.789 44.3835 809.261C44.2074 808.902 44.0377 808.536 43.8868 808.16L43.648 807.556L3.88908 716.677C2.64268 713.83 1.73736 710.922 1.1739 707.951C0.601634 704.929 0.395227 701.871 0.557472 698.787C0.708398 695.85 1.2044 692.951 2.03827 690.099C2.69417 687.846 3.53922 685.69 4.56615 683.635C4.72965 683.264 4.90563 682.901 5.09429 682.538C5.15718 682.45 5.49694 681.847 6.12832 680.792C6.58738 680.025 6.94261 679.453 7.19919 679.079L7.26214 679.079C9.20343 676.23 11.4053 673.745 13.8616 671.62C16.3249 669.49 19.1094 667.663 22.2091 666.142C25.044 664.755 27.8889 663.728 30.7407 663.067C33.7605 662.366 36.7357 662.018 39.6593 662.018L70.6425 662.018C72.7674 662.018 74.9204 662.213 77.1038 662.602C79.147 662.967 81.2322 663.522 83.3571 664.271C84.1859 664.566 85.2528 665.008 86.5482 665.602C86.9004 665.765 87.2688 665.942 87.6605 666.143C88.019 666.294 88.379 666.463 88.7337 666.64C89.0733 666.809 89.7042 667.161 90.6022 667.683C90.8474 667.827 91.1301 667.997 91.4666 668.211L92.0008 668.538C93.5139 667.559 94.996 666.718 96.4417 666.016C97.6523 665.425 98.9405 664.891 100.305 664.404L100.305 584.717C100.305 581.225 101.026 577.842 102.465 574.564C103.863 571.378 105.843 568.575 108.401 566.158C110.85 563.844 113.666 562.072 116.854 560.841C120 559.625 123.184 559.016 126.405 559.016L151.64 559.016C153.684 559.016 155.891 559.342 158.251 559.992C159.972 560.47 161.556 561.055 163.012 561.739C164.242 562.318 165.449 563.001 166.633 563.789C169.089 562.712 171.579 561.745 174.107 560.886L174.084 561.005Z" fill="#FEFEFE" stroke="#D2D3D5" stroke-width="1.00782" stroke-miterlimit="22.9256"/>
<path d="M268.831 213.42L269.158 213.339L269.416 213.256C273.853 206.431 279.439 198.283 285.602 190.015C290.639 183.255 296.062 176.41 301.556 170.138C306.269 164.754 311.037 159.788 315.659 155.657C319.808 151.948 323.841 148.907 327.614 146.835C328.269 146.161 328.945 145.593 329.614 145.092C330.282 144.595 330.944 144.156 331.571 143.744C332.376 143.216 333.117 142.731 333.73 142.185C334.264 141.707 334.698 141.191 334.981 140.568L334.504 140.568L333.76 140.568C330.033 140.63 325.148 140.14 320.004 138.767C315.971 137.688 311.777 136.044 307.854 133.63C303.029 130.666 298.611 126.544 295.399 120.888C292.644 116.043 290.778 110.07 290.301 102.739L290.301 102.273C287.268 109.786 284.225 118.944 281.406 128.849C278.465 139.185 275.771 150.337 273.597 161.29C271.495 171.872 269.876 182.261 268.986 191.534C268.176 200 267.971 207.544 268.559 213.462L268.86 213.399L268.831 213.42ZM387.281 104.288C379.817 113.012 371.123 119.926 363.574 125.009C356.487 129.781 350.406 132.939 347.303 134.474C348.691 134.568 350.063 134.751 351.437 134.965C348.845 136.398 346.709 137.477 345.226 138.202C347.584 138.36 349.883 138.762 352.247 139.172C357.554 140.099 363.194 141.085 370.442 139.385C377.699 137.681 386.582 133.284 398.371 123.441C402.406 120.07 405.773 115.458 408.303 110.133C410.895 104.679 412.606 98.4732 413.253 92.0897C413.851 86.2343 413.549 80.2271 412.211 74.512C411.739 72.4908 411.137 70.5075 410.401 68.5788C409.237 65.1207 407.645 61.8253 405.59 58.8074C404.83 71.7097 402.636 80.3089 399.606 86.8742C396.538 93.5219 392.617 98.08 388.461 102.913L387.281 104.288ZM396.991 56.6495C397.072 55.0522 396.764 53.3538 396.135 51.6206C395.174 48.9882 393.47 46.2715 391.251 43.69C389.017 41.0909 386.266 38.6344 383.23 36.5309C380.289 34.4953 377.079 32.7915 373.81 31.6149L372.965 31.3255L372.136 31.0614C367.232 29.5798 362.366 29.0755 357.599 29.3572C355.618 29.4704 353.655 29.7217 351.713 30.1003C347.78 30.6914 343.926 31.7686 340.18 33.2269C334.497 35.4393 329.058 38.5286 323.974 42.1401C318.178 46.256 312.841 51.0509 308.13 55.9962C305.673 58.5702 303.686 61.2461 302.158 63.9414C300.579 66.7311 299.49 69.5456 298.888 72.305C298.372 74.667 298.212 76.9917 298.403 79.2185C298.598 81.4446 299.139 83.5763 300.029 85.5585C300.93 87.5677 302.189 89.4306 303.802 91.0902C305.371 92.7038 307.273 94.1275 309.503 95.3054C312.123 96.6926 315.198 97.7442 318.717 98.3844C322.063 98.9944 325.814 99.228 329.961 99.0192C335.388 98.7488 340.695 97.5696 345.672 95.7176C350.999 93.7373 355.952 90.983 360.278 87.7425C362.903 85.776 365.299 83.6282 367.405 81.3656C369.518 79.0966 371.341 76.7117 372.817 74.2786C373.188 73.6686 373.536 73.0536 373.86 72.4386C375.251 70.1036 376.317 67.7168 377.003 65.3447C377.679 63.0072 377.986 60.6829 377.873 58.4297C377.791 56.7739 377.483 55.1508 376.923 53.5912C376.382 52.0863 375.615 50.6356 374.593 49.2609C374.36 48.9464 374.128 48.6452 373.891 48.3527L373.199 47.5022C372.249 46.3451 371.452 45.3737 371.022 44.2757C370.595 43.1796 370.538 41.9705 371.085 40.3569C373.684 39.7406 376.914 41.338 380.278 43.8981C383.922 46.6701 387.735 50.5738 391.067 53.9835C392.209 55.1531 393.297 56.2637 394.291 57.246C395.199 58.1408 396.035 58.9285 396.773 59.5574C396.999 58.6285 397.074 57.6539 397.011 56.6503L396.991 56.6495ZM325.148 108.384C319.05 107.786 313.255 106.152 308.192 103.446C303.631 101.009 299.663 97.6992 296.6 93.4922C297.204 96.717 297.916 99.6907 298.725 102.427C296.349 100.546 294.219 98.3679 292.397 95.8865C293.968 104.211 296.246 110.923 299.074 116.228C302.203 122.094 306.006 126.239 310.267 128.934C313.3 130.85 316.569 132.039 319.999 132.597C323.641 133.188 327.462 133.075 331.372 132.364C335.091 131.69 338.892 130.482 342.695 128.842C346.707 127.109 350.718 124.894 354.631 122.319C364.742 115.666 374.206 106.613 381.411 97.2114C388.552 87.8974 393.475 78.2497 394.616 70.2638L394.459 70.151C394.553 69.6542 394.642 69.1631 394.704 68.6801C393.553 67.8708 392.413 66.8531 391.276 65.8375C390.427 65.0804 389.579 64.3206 388.74 63.6628C387.971 63.0591 387.208 62.5431 386.456 62.1827C386.393 62.6858 386.336 63.1837 386.267 63.6774C386.185 63.6145 386.104 63.5953 386.022 63.5576C385.676 66.6239 385.087 69.5549 384.277 72.3426C382.955 76.3981 381.15 80.131 378.956 83.5319C374.619 90.2575 368.759 95.6873 362.108 99.7516C359.333 101.448 356.419 102.909 353.424 104.126C350.367 105.367 347.22 106.356 344.046 107.09C340.894 107.816 337.707 108.298 334.545 108.515C331.386 108.735 328.247 108.691 325.184 108.395L325.148 108.384ZM503.726 372.121C503.795 372.354 503.87 372.586 503.952 372.805L504.109 373.227C506.44 370.672 509.403 367.38 512.489 363.829C514.86 361.1 517.313 358.208 519.614 355.372C521.593 352.935 523.447 350.552 525.022 348.374C526.429 346.429 527.621 344.637 528.493 343.101C529.249 341.766 529.973 340.334 530.661 338.814C531.361 337.267 532.03 335.619 532.668 333.878C533.305 332.143 533.909 330.321 534.479 328.423C535.051 326.523 535.595 324.531 536.11 322.459C537.178 318.166 537.886 314.246 538.41 310.558C538.931 306.859 539.272 303.402 539.604 300.033C540.17 294.268 540.711 288.749 542.093 282.762C543.476 276.774 545.698 270.315 549.626 262.677C551.586 256.655 553.293 250.103 554.751 243.351C556.348 235.957 557.648 228.316 558.656 220.859C559.774 212.577 560.535 204.522 560.943 197.277C561.371 189.685 561.415 182.982 561.088 177.843C561.019 176.733 560.931 175.635 560.836 174.553C560.742 173.455 560.629 172.344 560.503 171.227C558.568 153.994 553.432 137.056 545.496 121.449C537.656 106.025 527.076 91.8942 514.149 80.0521C500.672 67.7076 484.641 57.8464 466.488 51.593C449.599 45.7767 430.874 43.0776 410.662 44.4001C409.572 44.4756 408.469 44.5576 407.357 44.6519C406.376 44.7399 405.405 44.8276 404.442 44.9282C408.198 47.8927 411.447 52.0058 414.029 56.899C416.714 61.9865 418.68 67.918 419.746 74.2732C420.384 78.0791 420.7 82.0421 420.655 86.0674C420.592 89.95 420.233 93.8929 419.486 97.8094C418.703 101.902 417.514 105.977 415.881 109.929C414.33 113.687 412.376 117.337 409.993 120.801C405.458 127.382 399.355 133.293 391.45 137.989C384.351 142.203 375.8 145.436 365.634 147.288C366.505 148.021 368.211 149.264 370.494 150.856C373.388 152.872 377.183 155.434 381.377 158.221C388.014 162.63 395.668 167.605 402.373 171.917C410.961 177.437 417.984 181.865 419.307 182.609C455.137 202.757 473.782 223.819 483.889 246.18C493.995 268.537 495.558 292.18 497.233 317.514C497.787 325.871 498.353 334.413 499.241 343.137C500.128 351.87 501.34 360.797 503.187 369.931C503.263 370.315 503.345 370.694 503.433 371.058C503.521 371.423 503.619 371.78 503.726 372.121Z" fill="#D8A22F" stroke="#D8A22F" stroke-width="1.00782" stroke-miterlimit="22.9256"/>
<path d="M313.937 656.297L313.435 619.461C313.045 590.758 299.883 576.403 272.78 576.403C267.706 576.403 262.8 577 258.06 578.205C253.32 579.407 248.614 581.143 243.941 583.412C241.404 584.747 239.101 585.983 237.031 587.118C234.963 588.252 232.993 589.354 231.124 590.422C228.32 586.283 224.414 582.911 219.408 580.309C214.401 577.706 208.561 576.403 201.883 576.403C194.273 576.403 187.13 577.538 180.455 579.807C173.779 582.077 167.572 585.217 161.83 589.222L157.023 581.61C156.488 580.941 155.656 580.343 154.52 579.807C153.387 579.273 152.419 579.006 151.617 579.006L126.382 579.006C124.647 579.006 123.179 579.572 121.977 580.708C120.776 581.843 120.174 583.211 120.174 584.815L120.174 682.013L113.267 682.013C111.41 682.013 109.474 682.347 107.456 683.022L107.393 683.022C105.803 683.55 104.255 684.305 102.748 685.28C101.183 686.295 99.7708 687.535 98.5106 689.01C97.1699 690.584 96.1145 692.354 95.3548 694.315L91.8612 703.263L89.0301 695.452C88.3585 693.173 87.2187 691.083 85.6095 689.181C84.3882 687.739 82.9941 686.496 81.4327 685.455C80.9359 685.121 80.4238 684.826 79.9012 684.566C78.8586 683.975 77.816 683.5 76.7784 683.133C74.7264 682.409 72.6891 682.045 70.6679 682.045L39.6847 682.045C36.6115 682.045 33.6964 682.724 30.9389 684.075C27.9336 685.546 25.5032 687.651 23.6462 690.381C23.3255 690.846 23.0432 691.329 22.7841 691.818C21.361 694.33 20.5731 697.026 20.4228 699.91C20.2656 702.926 20.8316 705.912 22.1201 708.864L62.2806 800.657C63.0723 802.504 64.1084 804.152 65.3849 805.605C66.4131 806.775 67.6663 807.866 69.1441 808.881C69.5655 809.171 69.9944 809.435 70.4346 809.674C73.4455 811.47 76.6024 812.37 79.902 812.37L100.614 812.37C102.47 812.37 104.407 812.031 106.427 811.359L106.49 811.359C108.08 810.831 109.634 810.078 111.14 809.103C112.837 808.003 114.283 806.746 115.47 805.331C115.911 804.803 116.306 804.254 116.657 803.685C117.456 802.497 118.087 801.256 118.546 799.962C131.23 771.094 121.328 785.268 137.95 800.213C140.754 802.734 143.91 804.87 147.412 806.613C153.275 809.317 152.102 817 147.412 816.48C141.435 816.48 135.968 818.959 131.977 822.949C127.98 826.947 125.497 832.466 125.497 838.536L125.497 847.769C125.497 849.168 125.585 850.58 125.761 851.987C126.72 859.754 130.303 866.955 135.589 872.24C141.234 877.886 148.758 881.434 157.181 881.434C158.361 881.434 159.59 881.358 160.865 881.201C247.31 870.538 332.511 865.222 416.503 865.232C500.729 865.232 584.023 870.556 666.416 881.146C667.974 881.347 669.235 881.441 670.22 881.441C678.575 881.441 686.131 877.949 691.81 872.401C697.204 867.132 700.923 859.886 701.932 852.035C702.146 850.372 702.259 848.942 702.259 847.768L702.259 838.534C702.259 832.464 699.777 826.945 695.779 822.947C691.789 818.958 686.321 816.478 680.344 816.478C672.277 816.478 677.941 801.287 686.181 803.877C687.868 805.046 689.637 805.895 691.48 806.424L692.059 806.575C695.008 807.534 697.754 808.315 700.29 808.919C703.137 809.598 706.467 810.242 710.276 810.846C713.973 811.437 717.591 811.86 721.126 812.122C724.942 812.405 728.705 812.543 732.405 812.543C740.023 812.543 747.039 811.665 753.451 809.907C760.335 808.019 766.314 805.142 771.389 801.278C776.882 797.09 781.035 791.917 783.847 785.761C786.554 779.831 787.907 773.274 787.907 766.094C787.907 760.631 787.034 755.529 785.287 750.791C783.471 745.86 780.739 741.457 777.097 737.589C776.689 737.155 776.271 736.727 775.844 736.305C776.114 735.89 776.372 735.455 776.618 735.01C778.226 732.061 779.031 728.848 779.031 725.366L779.031 704.825C779.031 703.093 778.755 701.293 778.208 699.43C777.774 697.971 777.156 696.509 776.344 695.047C775.344 693.25 774.102 691.665 772.614 690.296C770.833 688.662 768.844 687.467 766.651 686.717C765.91 686.408 765.111 686.094 764.263 685.774C763.046 685.315 761.867 684.886 760.737 684.5C759.564 684.097 758.15 683.669 756.501 683.212C755.225 682.86 753.733 682.49 752.029 682.114C750.553 681.787 749.034 681.48 747.472 681.198C745.419 680.827 743.86 680.563 742.803 680.413C741.02 680.156 739.274 679.967 737.57 679.848C735.654 679.709 733.923 679.64 732.381 679.64C728.889 679.64 725.477 679.841 722.149 680.25C718.825 680.659 715.571 681.286 712.391 682.135C708.319 683.62 704.009 683.266 705.026 678.804C705.365 677.32 706.962 676.801 707.229 675.601C707.499 674.398 707.429 673.262 707.027 672.194C706.631 671.128 705.928 670.227 704.926 669.492C703.924 668.758 702.69 668.39 701.22 668.39C701.22 668.39 700.754 668.057 699.819 667.389C698.884 666.587 698.415 666.187 698.415 666.187L698.415 625.13C698.415 616.319 697.282 608.809 695.011 602.6C692.741 596.394 689.271 591.352 684.599 587.48C679.925 583.609 673.983 580.771 666.774 578.968C659.564 577.166 651.02 576.266 641.139 576.266C634.999 576.266 629.19 576.801 623.716 577.869C618.242 578.935 612.969 580.405 607.896 582.273C602.822 584.277 598.715 586.111 595.578 587.782C592.44 589.451 590.137 590.951 588.668 592.288C588 592.955 587.5 593.957 587.166 595.29C586.833 596.627 586.864 597.829 587.266 598.897L594.878 616.319C595.545 617.922 596.714 619.023 598.383 619.625C600.051 620.228 601.62 620.127 603.089 619.322C605.358 618.253 607.761 617.185 610.3 616.117C612.836 615.049 615.638 613.913 618.71 612.71C622.047 611.377 625.32 610.441 628.523 609.909C631.728 609.374 635.065 609.106 638.538 609.106C643.21 609.106 646.882 610.11 649.553 612.112C652.223 614.114 653.624 617.185 653.758 621.324L636.935 620.522C628.523 620.126 620.879 620.886 614.004 622.825C607.128 624.761 600.954 627.531 595.479 631.137C584.398 638.749 578.856 648.495 578.856 660.377C578.856 671.458 582.495 680.269 589.771 686.813C590.079 687.09 590.388 687.354 590.703 687.619C589.944 687.946 589.179 688.28 588.407 688.624C585.97 689.715 584.101 690.604 582.805 691.294C580.058 692.756 577.732 694.218 575.822 695.68C575.414 695.164 574.988 694.662 574.555 694.168C574.184 693.747 573.806 693.34 573.42 692.935C573.545 692.809 573.678 692.67 573.797 692.519C574.733 691.384 575.2 689.948 575.2 688.212L575.2 585.275C575.2 583.536 574.735 582.103 573.797 580.966C572.863 579.832 571.728 579.265 570.393 579.265L542.156 579.265C540.685 579.265 539.484 579.831 538.55 580.966C537.614 582.103 537.148 583.536 537.148 585.275L537.148 679.82C533.774 679.883 530.307 680.197 526.749 680.768C522.893 681.391 519.146 682.314 515.51 683.539C512.806 684.447 510.212 685.476 507.73 686.618L507.403 686.367C506.248 685.503 505.125 684.795 504.039 684.253C503.549 684.008 503.053 683.8 502.551 683.615C501.88 683.332 501.24 683.093 500.635 682.905C498.827 682.352 497.122 682.072 495.51 682.072L489.032 682.072L489.032 629.732C490.233 627.998 492.437 625.528 495.642 622.322C498.577 619.386 501.25 617.917 503.653 617.917C506.591 617.917 509.794 620.188 513.266 624.725C514.867 626.864 516.803 627.663 519.072 627.13C521.344 626.595 522.811 625.06 523.478 622.522L531.89 590.081C531.356 588.879 530.521 587.51 529.386 585.975C528.252 584.439 526.849 582.969 525.181 581.568C523.512 580.167 521.608 578.964 519.473 577.964C517.337 576.962 515.067 576.461 512.664 576.461C507.19 576.461 502.016 578.231 497.143 581.768C492.27 585.308 487.562 590.346 483.024 596.89L478.817 583.069C478.553 582.001 477.883 581.07 476.815 580.267C475.747 579.465 474.68 579.064 473.61 579.064L450.18 579.064C448.711 579.064 447.41 579.63 446.274 580.766C445.139 581.901 444.572 583.27 444.572 584.874L444.572 671.86C444.157 670.935 443.502 670.144 442.606 669.488C441.604 668.754 440.37 668.386 438.899 668.386C438.899 668.386 438.434 668.053 437.498 667.384C436.565 666.582 436.097 666.184 436.097 666.184L436.097 625.126C436.097 616.315 434.962 608.805 432.693 602.596C430.422 596.389 426.951 591.347 422.277 587.475C417.605 583.604 411.663 580.767 404.454 578.965C397.244 577.162 388.7 576.262 378.819 576.262C372.678 576.262 366.871 576.797 361.396 577.864C355.922 578.93 350.648 580.401 345.575 582.268C340.5 584.273 336.396 586.107 333.258 587.777C330.121 589.446 327.817 590.946 326.349 592.283C325.68 592.95 325.181 593.952 324.848 595.286C324.515 596.623 324.546 597.824 324.949 598.892L332.559 616.315C333.226 617.918 334.394 619.019 336.063 619.62C337.732 620.224 339.3 620.123 340.769 619.318C343.038 618.249 345.442 617.181 347.98 616.113C350.516 615.045 353.321 613.91 356.39 612.707C359.729 611.373 363 610.437 366.204 609.904C369.408 609.369 372.748 609.102 376.218 609.102C380.89 609.102 384.563 610.105 387.233 612.107C389.903 614.109 391.304 617.181 391.438 621.32L374.615 620.517C366.203 620.121 358.56 620.882 351.684 622.821C344.808 624.757 338.584 627.456 333.159 631.133C320.89 639.451 317.939 645.61 316.734 656.381L313.983 656.381L313.937 656.297ZM259.634 345.239C263.592 362.536 269.406 379.948 275.695 395.342C282.963 413.131 290.867 428.23 297.266 437.346L297.329 437.409C300.999 444.127 305.501 449.459 310.58 453.575C328.885 468.408 354.392 467.244 375.323 459.133L375.412 459.133C389.758 455.934 403.545 449.843 415.64 441.499C419.892 438.567 423.666 435.537 426.909 432.576C428.903 430.751 440.938 422.42 443.439 422.605C445.533 422.731 448.392 423.447 448.817 425.877C449.018 421.619 449.676 417.469 450.823 413.557C453.96 402.841 461.134 393.309 472.688 391.321C472.005 385.113 478.435 384.36 483.087 384.594C483.793 383.03 484.46 381.458 485.112 379.87C485.936 377.862 486.454 376.606 487.416 375.117C488.369 373.645 489.752 371.955 492.29 369.105L491.662 367.912C490.597 369.148 489.46 370.044 488.151 370.999C486.632 372.108 485.498 373.009 484.554 374.689C483.618 376.358 479.094 384.531 476.193 382.711C473.929 381.29 474.905 375.035 475.321 373.003C476.065 369.365 477.517 365.381 479.55 362.42C481.229 359.973 483.312 358.219 485.725 357.922C485.958 357.922 486.184 358.004 486.303 358.206C486.769 358.965 489.557 363.55 490.828 362.769C493.152 361.337 491.835 347.484 491.605 344.214C491.605 343.729 491.542 343.338 491.542 343.08C491.605 335.63 489.672 318.682 487.985 303.828L487.985 303.72C487.05 295.499 486.19 287.925 485.781 282.986C485.505 279.652 483.835 273.317 481.35 266.138C479.102 259.641 476.186 252.455 473.038 246.182C470.879 241.877 465.258 231.244 460.288 229.882C461.805 233.513 464.545 235.187 462.586 239.768C462.523 239.919 462.423 240.045 462.272 240.114C459.01 241.635 457.077 239.868 454.856 237.684C454.403 237.238 453.936 236.779 453.46 236.367C440.148 224.839 414.918 230.229 397.234 234.009C388.511 235.872 381.592 237.353 378.583 236.235C376.56 235.481 376.449 233.846 377.123 232.025L377.374 231.471C379.245 227.656 383.127 224.482 388.294 222.017C393.83 219.373 400.85 217.539 408.447 216.608C422.416 214.892 439.284 216.098 452.285 221.776L454.294 222.706C454.772 222.939 455.253 223.159 455.754 223.345C455.678 223.276 455.603 223.195 455.534 223.107C454.483 221.838 453.105 220.605 451.877 219.505C447.909 215.952 441.673 210.96 435.024 206.063C429.217 201.785 423.096 197.586 417.906 194.486L417.781 194.391C416.233 192.942 414.24 191.337 411.987 189.685C409.572 187.915 406.866 186.097 404.099 184.364C401.227 182.564 398.277 180.851 395.505 179.369C392.816 177.933 390.3 176.717 388.182 175.858C387.024 175.386 383.97 173.547 379.982 170.979C375.676 168.208 370.273 164.59 364.978 160.932C360.292 157.693 355.678 154.414 351.974 151.661C348.755 149.267 346.224 147.268 344.931 146.036C342.969 146.52 339.435 149.032 335.114 152.661C330.717 156.356 325.506 161.212 320.29 166.276C311.72 174.603 303.382 183.198 295.17 191.876C293.282 193.84 291.546 196.101 289.949 198.305C288.294 200.589 286.71 202.956 285.266 205.379C301.069 205.19 320.738 209.468 329.096 224.408C331 227.752 332.642 229.935 330.382 233.729C330.3 233.892 330.149 234.006 329.967 234.043C326.774 234.673 324.824 234.771 323.039 234.314C320.88 233.767 319.039 232.426 317.158 231.296C314.752 229.792 311.488 227.75 306.367 225.162C302.933 223.427 298.865 222.234 295.114 221.412C291.265 220.565 287.024 219.951 283.077 220.048C273.274 220.287 268.786 225.224 266.175 233.868C265.364 236.552 264.754 239.496 264.18 242.58C263.966 243.851 263.821 245.111 263.645 246.385C263.759 248.638 264.43 250.836 264.909 253.036C265.897 251.783 267.333 251.343 268.885 251.742C272.305 252.625 275.116 251.201 278.344 249.562C280.12 248.662 282.016 247.698 284.213 246.994C286.414 246.286 288.913 245.838 291.887 245.968C294.984 246.107 299.684 246.88 304.599 248.307C312.301 250.548 325.494 255.925 325.874 265.536C325.874 267.11 324.333 268.65 323.011 269.297C321.547 270.008 319.862 270.075 318.456 269.184C316.951 268.228 316.164 266.447 315.752 264.776C314.454 267.599 311.698 269.544 308.809 270.496C304.516 271.91 299.445 271.342 296.163 268.007C293.519 265.321 292.696 261.577 292.733 257.92C291.753 257.643 289.158 257.009 285.555 256.975C281.949 256.912 274.36 257.931 268.938 260.332C267.921 260.778 265.039 260.609 264.301 258.792C264.729 262.462 263.576 263.977 263.082 265.314C262.317 267.38 261.592 269.328 260.909 271.2C256.998 281.928 254.513 290.16 254.482 304.091C254.482 316.931 256.447 331.042 259.695 345.236L259.634 345.239ZM448.732 427.405C448.166 429.892 445.828 432.357 443.842 433.822C440.406 436.174 437.01 438.616 433.616 441.029C410.408 457.547 384.999 475.633 351.373 478.038C314.518 480.673 291.391 451.618 276.371 421.92C276.949 423.732 277.436 425.588 277.881 427.439C279.446 433.922 281.125 443.134 282.229 452.598C283.125 460.284 283.644 468.142 283.412 474.841C283.677 476.719 282.79 478.571 281.165 479.551C278.293 481.276 274.574 479.551 274.056 476.23C272.92 472.119 271.831 467.422 270.824 462.531C269.685 456.983 268.651 451.188 267.778 445.719C266.765 439.339 265.973 433.39 265.493 428.782C265.009 424.128 264.842 420.825 265.079 419.809C264.651 416.508 267.676 413.848 270.861 414.614C272.551 415.017 273.884 416.326 274.321 418.007C274.384 418.007 274.435 418.07 274.492 418.114C268.693 406.108 263.899 393.632 259.487 381.061C254.923 368.061 251.312 354.557 248.695 341.031C246.34 328.861 244.69 316.236 244.547 303.828C244.453 295.651 245.259 287.33 247.052 279.349C247.949 275.358 249.041 271.719 250.253 268.542C251.51 265.25 252.899 262.449 254.334 260.27C254.403 260.126 254.472 260.031 254.573 259.912C255.088 259.174 255.585 258.524 256.175 257.841C257.151 255.708 256.848 252.349 256.572 250.101L256.566 250.038C254.817 239.118 254.529 226.282 255.293 212.704C256.156 197.379 258.365 181.094 261.327 165.545C264.793 147.348 269.304 130.134 273.921 116.597C278.567 102.972 283.328 93.0621 287.245 89.5984C287.307 89.5984 287.182 89.5984 287.182 89.5984C287.087 89.3783 287.056 89.2077 287.056 88.9681C287.058 85.6314 287.06 75.3296 290.833 68.6914C291.148 68.138 291.511 67.4253 291.889 66.6556C292.648 65.101 293.362 63.5233 294.129 61.9706C294.462 61.3009 294.752 60.7425 294.976 60.3954C303.199 47.5371 313.627 34.6008 327.235 27.1891C338.84 20.8659 351.026 19.4688 364.027 20.7523L364.814 20.8153C367.094 20.9725 372.43 21.35 378.785 23.4913C385.12 25.6288 392.466 29.5271 398.789 36.7325C420.738 34.5435 443.604 35.3971 464.504 43.0088C494.68 53.995 523.371 71.7692 543.669 96.977C562.014 119.758 571.85 146.663 571.524 175.983C570.958 226.789 564.827 244.358 559.203 260.474C557.563 265.171 555.966 269.751 554.563 274.999C553.164 280.247 551.958 286.169 551.101 293.561C549.939 303.618 548.359 313.801 545.892 323.628C543.933 331.436 541.258 339.648 537.249 346.659C533.86 352.58 526.373 361.631 519.643 369.293C512.93 376.939 506.972 383.205 506.602 383.593C506.54 383.656 506.508 383.681 506.457 383.712C505.118 390.285 500.47 395.664 493.241 394.411C490.694 393.971 488.268 392.782 486.122 391.369C485.726 391.646 485.329 391.929 484.936 392.217C489.639 393.713 493.929 396.35 497.666 399.544C514.725 414.136 523.268 442.847 516.959 464.391C514.112 474.11 507.959 482.976 497.86 485.98C487.785 488.976 477.772 484.919 470.091 478.348C456.107 466.384 448.335 445.551 448.739 427.379L448.732 427.405ZM503.73 370.495C503.849 370.872 503.975 371.226 504.12 371.592C509.432 365.827 514.676 359.946 519.642 353.878C521.623 351.461 523.481 349.097 525.057 346.933C526.465 345.007 527.659 343.227 528.53 341.703C531.117 337.182 533.016 332.111 534.526 327.139C536.289 321.324 537.597 315.433 538.458 309.413C539.777 300.208 540.029 290.934 542.146 281.836C543.532 275.894 545.757 269.488 549.688 261.908C551.651 255.933 553.358 249.432 554.819 242.733C556.417 235.394 557.717 227.814 558.726 220.417C559.847 212.201 560.609 204.208 561.019 197.019C561.446 189.488 561.49 182.836 561.163 177.739C558.777 140.899 541.484 105.504 514.172 80.7097C484.624 53.8832 446.825 42.1931 407.263 45.5889C406.281 45.6707 405.31 45.7654 404.345 45.866C413.018 52.647 417.873 64.387 419.667 74.9807C422.356 90.8834 419.157 107.823 409.901 121.143C399.437 136.199 383.189 144.229 365.494 147.424C366.367 148.151 368.074 149.385 370.36 150.964C373.257 152.965 377.057 155.506 381.255 158.271C387.899 162.646 395.562 167.582 402.273 171.86C410.871 177.338 417.903 181.732 419.226 182.468C455.097 202.461 473.763 223.357 483.881 245.541C493.997 267.726 495.563 291.183 497.239 316.32C497.793 324.61 498.361 333.088 499.249 341.743C500.136 350.406 501.353 359.266 503.201 368.326C503.352 369.058 503.516 369.782 503.73 370.495ZM490.808 407.602C485.951 403.447 479.389 400.138 472.886 402.07C466.39 403.997 462.704 410.352 460.91 416.477C455.771 434.031 463.035 458.454 476.934 470.346C481.792 474.501 488.354 477.802 494.855 475.87C501.351 473.942 505.038 467.595 506.832 461.467C511.971 443.916 504.707 419.49 490.808 407.602ZM331.89 66.6418C327.701 66.9247 326.919 62.3655 326.682 59.1495C326.682 58.8225 326.908 58.5329 327.235 58.5146C336.461 57.8386 338.041 53.7565 343.943 49.1362C347.152 46.6227 351.536 44.1573 355.565 43.4341C358.733 42.8619 361.574 43.3583 364.293 45.0876C365.391 45.7882 366.35 46.6081 367.232 47.4106C373.742 53.3413 365.989 62.0649 360.653 59.313C359.733 58.8351 358.817 57.8921 358.371 56.9601L358.371 56.8473C358.038 54.7865 357.231 52.6618 354.74 53.0643C351.985 53.5108 348.082 56.5226 344.134 59.5694C342.067 61.1931 339.864 62.8844 337.645 64.2874C335.555 65.6067 333.597 66.5284 331.923 66.641L331.89 66.6418ZM353.577 73.982C351.855 75.8913 349.809 77.7947 347.843 79.4385C345.531 81.3722 343.322 82.9521 341.871 83.7665C336.752 86.6454 330.411 88.9059 324.485 87.6777C315.805 85.8773 311.925 77.3498 313.704 69.1067C314.201 66.8088 315.139 64.5095 316.54 62.3506C316.653 62.1745 316.842 62.0804 317.049 62.0804C320.351 62.1496 324.364 62.7915 324.278 66.9181C324.215 68.8097 323.477 70.3968 323.187 72.1934C323.099 72.7217 323.092 73.1792 323.25 73.5C323.621 74.3873 325.136 74.6175 329.177 73.5629C333.316 72.4668 340.033 69.9994 350.739 65.488C353.026 64.5214 355.281 64.1631 357.597 65.2869C357.773 65.3749 357.899 65.5447 357.924 65.7459C358.27 68.4752 355.309 72.1034 353.6 73.9982L353.577 73.982ZM548.578 502.477C550.81 504.571 553.475 507.405 556.342 510.66C559.459 514.2 562.825 518.25 566.138 522.409C567.856 524.314 562.927 528.922 563.65 529.847C565.25 528.842 566.401 525.134 571.314 525.134L605.388 525.134C607.925 525.134 609.694 526.101 610.694 528.038C611.696 529.973 611.33 531.877 609.594 533.745L572.746 572.599C572.343 572.995 571.644 573.397 570.642 573.801C569.64 574.197 568.872 574.398 568.338 574.398L543.705 574.398C541.302 574.398 539.6 573.53 538.598 571.795C537.596 570.059 537.698 568.257 538.9 566.389L560.061 533.804C555.515 528.94 551.004 524.041 546.539 519.109C542.161 514.273 537.905 509.478 534.186 505.137C511.109 478.206 542.011 494.362 548.578 502.477ZM321.648 320.182C322.851 321.182 324.074 322.189 325.546 322.77C328.856 324.073 331.007 324.366 332.619 324.12C334.218 323.874 335.304 323.091 336.475 322.246C338.728 320.616 340.425 319.713 343.262 319.41C346.386 319.077 349.334 319.881 352.308 320.718C355.586 321.641 359.088 322.677 362.388 321.259C364.425 320.388 366.053 318.927 367.667 317.45C369.182 316.124 370.998 314.192 373.159 314.297C374.965 314.385 376.567 315.962 377.616 317.297C377.886 317.819 378.012 318.594 378.012 319.177C378.012 324.486 369.521 328.941 365.299 330.611C363.512 331.318 360.881 332.213 358.956 332.217C357.175 332.22 355.303 331.581 353.337 330.909C351.362 330.233 349.28 329.522 347.193 329.441C344.816 329.353 343.252 329.548 342.105 329.888C340.962 330.221 340.222 330.703 339.488 331.177C338.334 331.92 337.192 332.656 334.791 332.925C330.651 333.384 325.07 333.626 321.305 331.613C319.881 330.851 318.486 330.057 317.125 329.182C316.079 328.515 316.026 328.572 314.835 328.504C313.275 328.416 311.733 328.278 310.18 328.115C306.114 327.668 302.064 325.881 299.822 322.308C297.695 318.925 297.843 314.985 299.337 311.415C299.4 311.245 299.52 311.113 299.684 311.05C302.985 309.742 304.166 312.195 305.235 314.45L305.235 314.513C305.807 315.71 306.342 316.83 307.082 316.9L307.183 316.9C308.832 317.353 310.518 317.321 312.205 317.195C315.124 317.007 317.378 317.039 319.839 318.763C320.449 319.191 321.032 319.673 321.625 320.167L321.648 320.182ZM407.736 280.574C403.165 278.374 400.906 274.219 401.182 269.206C395.9 266.526 391.279 269.502 387.303 272.962C384.724 275.206 379.758 274.472 377.539 271.945C376.922 271.238 376.524 270.39 376.498 269.444C376.429 267.032 378.733 265.116 380.589 263.957C384.209 261.693 389.288 260.862 393.47 260.194C394.288 260.061 395.033 259.942 395.68 259.823C396.309 259.703 396.828 259.59 397.195 259.458C405.454 256.613 414.692 254.994 423.218 257.645C429.209 259.508 434.521 263.023 440.799 264.153C444.462 264.811 448.267 264.575 452.243 262.5L452.445 262.43C454.655 262.072 457.806 262.047 459.304 264.036C460.837 266.076 459.612 268.741 457.505 269.834C449.624 277.051 437.91 271.138 428.576 270.591C428.218 273.32 427.128 275.561 425.586 277.314C421.324 282.15 413.472 283.328 407.736 280.574ZM268.576 213.035L269.161 212.872C273.602 206.098 279.196 198.013 285.364 189.81C290.407 183.102 295.836 176.312 301.336 170.087C306.056 164.747 310.827 159.819 315.455 155.719C319.609 152.04 323.646 149.022 327.422 146.969C328.624 145.744 329.956 144.832 331.384 143.903C332.639 143.085 334.153 142.159 334.798 140.749C325.63 141.057 315.494 138.68 307.642 133.895C296.175 126.913 290.827 115.932 290.041 102.781C287.007 110.234 283.957 119.32 281.137 129.15C278.194 139.403 275.497 150.47 273.319 161.335C271.213 171.836 269.593 182.143 268.703 191.343C267.89 199.744 267.685 207.227 268.276 213.099L268.584 213.036L268.576 213.035ZM324.956 108.821C313.9 107.748 303.095 103.197 296.377 94.0492C299.192 108.978 305.946 126.561 322.897 129.319C351.171 133.92 391.096 93.8563 394.589 69.4314C392.466 67.9517 390.654 66.0283 388.607 64.4417C387.839 63.8442 387.075 63.3312 386.321 62.9747C384.529 78.9484 375.612 91.9689 361.946 100.247C351.068 106.839 337.639 110.053 324.956 108.821ZM391.158 53.7867C392.915 55.5852 394.727 57.5132 396.641 59.1426C397.884 54.0331 394.33 48.3233 391.131 44.6332C386.605 39.4137 380.184 34.9748 373.672 32.6525L371.996 32.0998C348.949 25.2012 326.783 39.6787 311.492 55.7165C307.339 60.0752 303.91 65.4475 302.612 71.3858C300.573 80.7225 304.342 89.0069 312.813 93.485C318.733 96.6167 325.865 97.3852 332.468 97.0538C345.807 96.3853 359.353 89.8567 368.444 80.0918C374.551 73.5353 380.084 63.5937 376.786 54.4545C376.07 52.4686 375.061 50.8807 373.75 49.2545C371.617 46.6554 369.708 44.9287 370.938 41.2763C371.001 41.1128 371.114 40.9806 371.271 40.9178C373.874 39.816 377.255 41.4025 380.79 44.0928C384.293 46.756 387.956 50.5084 391.158 53.7867ZM387.156 104.756C379.687 113.413 370.982 120.273 363.424 125.316C356.329 130.052 350.242 133.187 347.134 134.708C349.4 134.859 351.61 135.242 353.881 135.641C358.978 136.53 364.399 137.476 371.364 135.842C378.337 134.203 386.87 129.977 398.195 120.52C402.074 117.283 405.31 112.85 407.74 107.736C414.706 93.0662 414.893 73.3165 405.487 59.63C404.725 72.4324 402.529 80.9663 399.494 87.4781C396.423 94.0755 392.498 98.5977 388.337 103.392L387.156 104.756ZM328.087 526.148C328.471 525.965 328.628 525.519 328.484 524.675C328.333 523.758 327.828 522.398 326.901 520.446C326.599 519.802 326.175 518.551 325.679 516.869C325.131 515.007 324.479 512.604 323.783 509.905C321.828 502.322 320.029 494.682 318.277 487.049C317.881 485.309 317.37 483.658 316.818 481.964C316.629 481.386 316.459 480.879 316.333 480.42C315.755 478.371 315.874 477.295 318.109 476.663C318.253 476.601 318.411 476.601 318.562 476.601C323.325 476.777 333.38 504.502 335.074 509.233C336.896 514.329 338.407 518.953 339.297 522.108C339.573 523.1 339.8 523.956 339.948 524.639C340.092 525.292 340.174 525.794 340.18 526.124C342.257 531.402 343.353 538.062 340.695 543.339C338.608 547.49 334.643 549.649 330.021 549.127C323.7 548.412 318.238 543.138 314.641 538.241C300.637 533.905 282.346 536.925 264.885 542.259C248.619 547.227 233.071 554.203 222.37 559.115L208.258 559.115C214.511 544.381 253.37 535.458 267.887 532.401C279.177 530.023 290.26 528.231 299.316 527.045C303.185 526.536 306.69 526.142 309.686 525.857C312.895 525.549 315.516 525.373 317.37 525.323C319.705 525.26 321.932 525.618 323.816 525.92C324.788 526.077 327.205 526.551 328.075 526.134L328.087 526.148ZM168.239 682.584L168.239 619.461C168.905 618.927 169.774 618.394 170.843 617.859C171.911 617.325 173.179 616.725 174.647 616.057L174.446 616.057C178.85 614.053 183.123 613.053 187.263 613.053C189.133 613.053 190.534 614.255 191.468 616.658C192.404 619.061 192.871 622.198 192.871 626.07L192.871 679.579L191.931 679.578C189.219 679.578 186.201 679.729 182.878 680.037C179.615 680.339 176.685 680.739 174.094 681.246C172.239 681.61 170.289 682.052 168.239 682.584ZM240.074 691.325C240.646 690.412 240.937 689.354 240.937 688.154L240.937 619.262C241.605 618.86 242.505 618.426 243.64 617.96C244.774 617.495 246.077 616.925 247.546 616.256C249.682 615.188 251.752 614.389 253.753 613.854C255.758 613.319 257.759 613.053 259.763 613.053C261.631 613.053 263.034 614.255 263.968 616.658C264.902 619.061 265.371 622.2 265.371 626.07L265.371 656.596C254.545 655.939 249.393 660.218 249.393 670.515L249.783 692.925C249.953 696.667 247.833 700.383 245.427 697.935C244.327 696.632 239.236 692.655 240.074 691.325ZM385.383 662.72C380.979 664.454 376.173 665.322 370.966 665.322C364.156 665.322 360.752 663.656 360.752 660.316C360.752 653.774 370.967 650.502 391.393 650.502L391.991 650.502L391.991 659.916C391.057 660.318 390.055 660.75 388.987 661.219C387.919 661.684 386.72 662.185 385.383 662.72ZM647.7 662.72C643.293 664.454 638.487 665.322 633.28 665.322C626.471 665.322 623.067 663.656 623.067 660.316C623.067 653.774 633.28 650.502 653.707 650.502L654.305 650.502L654.305 659.916C653.37 660.318 652.369 660.75 651.301 661.219C650.233 661.684 649.035 662.185 647.7 662.72Z" fill="#5E3B3C"/>
<path fill-rule="evenodd" clip-rule="evenodd" d="M147.347 830.519L680.273 830.519C684.663 830.519 688.254 834.111 688.254 838.5L688.254 847.734C688.254 858.709 678.974 868.6 668.089 867.202C502.163 845.871 332.598 845.796 159.111 867.202C148.217 868.544 139.364 858.709 139.364 847.734L139.364 838.5C139.364 834.111 142.956 830.519 147.347 830.519Z" fill="#D8A22F"/>
<path d="M771.647 767.057C771.647 763.474 771.112 760.228 770.04 757.317C768.977 754.438 767.386 751.869 765.263 749.614C763.065 747.279 760.42 745.15 757.337 743.238C754.192 741.292 750.607 739.555 746.578 738.047C743.078 736.747 739.969 735.541 737.261 734.423C734.6 733.327 732.495 732.383 730.947 731.594C729.208 730.707 727.866 729.776 726.927 728.802C725.763 727.594 725.18 726.303 725.18 724.927C725.18 724.077 725.444 723.281 725.976 722.545C726.404 721.948 727 721.418 727.761 720.953C728.477 720.519 729.298 720.19 730.216 719.978C731.081 719.783 732.022 719.683 733.037 719.683C735.519 719.683 738.075 720.029 740.702 720.715C743.268 721.389 745.894 722.395 748.575 723.733C750.017 724.421 751.223 725.015 752.196 725.505C753.253 726.04 754.199 726.541 755.031 727.005L756.95 728.062L757.996 728.627C758.103 728.69 758.203 728.746 758.298 728.809C758.87 729.224 759.405 729.462 759.904 729.521C760.369 729.584 760.847 729.458 761.337 729.238C761.815 728.999 762.165 728.672 762.389 728.26C762.647 727.789 762.779 727.145 762.779 726.331L762.779 705.794C762.779 705.517 762.716 705.24 762.653 704.95C762.553 704.598 762.395 704.235 762.181 703.855C762.005 703.535 761.823 703.289 761.635 703.121C761.534 703.033 761.439 702.97 761.351 702.945C761.226 702.882 761.106 702.863 760.987 702.807C760.233 702.486 759.412 702.155 758.53 701.82C757.614 701.474 756.604 701.113 755.506 700.737C754.417 700.366 753.3 700.018 752.159 699.704C750.963 699.37 749.744 699.066 748.505 698.793C745.985 698.234 743.31 697.749 740.481 697.346C739.114 697.151 737.748 697.006 736.388 696.906C735.059 696.811 733.707 696.761 732.336 696.761C726.597 696.761 721.323 697.403 716.519 698.688C714.122 699.328 711.896 700.121 709.844 701.066C707.794 702.007 705.896 703.107 704.151 704.362C702.152 705.77 700.421 707.312 698.961 708.988C697.517 710.645 696.344 712.428 695.445 714.332C693.611 718.218 692.693 722.792 692.693 728.055C692.693 738.196 696.257 745.555 703.382 750.127L703.444 750.19C709.79 754.205 715.023 756.926 719.14 758.35L719.31 758.35C719.618 758.35 719.914 758.419 720.18 758.539C722.883 759.518 725.284 760.402 727.38 761.19C729.551 762.007 731.446 762.736 733.062 763.383C734.874 764.107 736.274 764.899 737.254 765.755C738.534 766.872 739.175 768.128 739.175 769.516C739.175 770.534 738.817 771.419 738.112 772.164C737.546 772.755 736.769 773.208 735.785 773.522C735.001 773.767 734.113 773.956 733.126 774.069C732.163 774.182 731.095 774.239 729.928 774.239C726.384 774.239 722.872 773.906 719.392 773.241C715.944 772.581 712.542 771.594 709.185 770.279C707.593 769.694 706.008 769.104 704.436 768.512C702.958 767.953 701.686 767.462 700.614 767.041C699.629 766.651 698.661 766.262 697.718 765.875C696.787 765.492 696.105 765.205 695.659 765.007L695.495 764.926C694.892 764.655 694.354 764.542 693.888 764.573C693.467 764.573 693.064 764.768 692.686 765.07C692.265 765.41 691.971 765.801 691.802 766.252C691.62 766.749 691.563 767.354 691.645 768.072C692.261 775.208 693.229 782.381 693.909 789.522C693.971 789.73 694.015 789.95 694.116 790.171L694.179 790.284C694.292 790.504 694.45 790.725 694.645 790.953C694.877 791.223 695.103 791.437 695.326 791.593C695.509 791.719 695.692 791.807 695.887 791.863C695.975 791.863 696.062 791.927 696.144 791.952C698.592 792.762 701.212 793.5 704 794.163C706.86 794.846 709.788 795.425 712.787 795.901C715.801 796.379 718.954 796.743 722.243 796.987C725.49 797.226 728.871 797.346 732.386 797.346C738.716 797.346 744.321 796.675 749.196 795.339C754 794.021 758.125 792.05 761.569 789.428C764.949 786.854 767.478 783.725 769.159 780.044C770.855 776.33 771.701 772.01 771.701 767.081L771.647 767.057ZM143.714 703.381C143.984 702.752 144.11 702.192 144.085 701.694C144.085 701.26 143.915 700.841 143.645 700.44C143.362 700.025 143.016 699.716 142.611 699.518C142.178 699.304 141.618 699.197 140.946 699.197L113.27 699.197C112.754 699.197 112.174 699.399 111.545 699.807C111.224 700.015 110.966 700.24 110.767 700.477C110.591 700.684 110.459 700.899 110.377 701.126L93.3106 744.847C92.8892 745.931 91.6655 746.468 90.58 746.042C89.97 745.803 89.5297 745.306 89.3411 744.725L73.4829 700.967C73.42 700.854 73.3637 700.722 73.2442 700.577C73.0492 700.351 72.7787 700.118 72.4297 699.882C72.0524 699.63 71.6955 699.448 71.3673 699.328C71.1094 699.24 70.8638 699.19 70.6311 699.19L39.6479 699.19C38.9757 699.19 38.4199 699.297 37.9829 699.511C37.5804 699.712 37.2321 700.021 36.9504 700.433C36.68 700.829 36.5295 701.251 36.5044 701.687C36.5044 702.184 36.6048 702.748 36.8752 703.374L77.0901 795.293C77.1719 795.482 77.304 795.677 77.4801 795.878C77.7002 796.13 77.9647 796.356 78.2577 796.563C78.8174 796.947 79.352 797.142 79.8544 797.142L100.569 797.142C100.82 797.142 101.072 797.079 101.323 797.016C101.624 796.915 101.952 796.752 102.294 796.525C102.609 796.324 102.848 796.123 103.021 795.915C103.135 795.783 103.204 795.658 103.242 795.538C103.305 795.4 103.335 795.268 103.398 795.142L143.723 703.37L143.714 703.381ZM310.963 665.183C310.655 665.183 310.384 665.246 310.162 665.353L310.068 665.416C309.873 665.535 309.678 665.712 309.496 665.957C309.232 666.297 309.037 666.656 308.911 667.028L308.911 667.097C308.804 667.456 308.747 667.864 308.747 668.318L308.747 794.337C308.747 794.821 308.81 795.249 308.936 795.627L308.936 795.709C309.062 796.055 309.244 796.388 309.483 796.697C309.703 796.973 309.923 797.174 310.15 797.288C310.364 797.395 310.633 797.451 310.95 797.451L338.974 797.451C339.213 797.451 339.42 797.388 339.603 797.306C339.823 797.193 340.044 796.986 340.266 796.703C340.53 796.363 340.725 796.004 340.851 795.633L340.851 795.563C340.958 795.205 341.015 794.799 341.015 794.344L341.015 668.326C341.015 667.842 340.952 667.413 340.826 667.035C340.7 666.664 340.505 666.304 340.241 665.964L340.166 665.863C339.971 665.637 339.776 665.467 339.581 665.36C339.398 665.266 339.191 665.216 338.951 665.216L310.927 665.216L310.963 665.183ZM260.669 665.183C260.36 665.183 260.09 665.246 259.868 665.353L259.773 665.416C259.578 665.535 259.383 665.712 259.201 665.957C258.937 666.297 258.742 666.656 258.617 667.028L258.617 667.097C258.51 667.456 258.453 667.864 258.453 668.318L258.453 794.337C258.453 794.821 258.515 795.249 258.641 795.627L258.641 795.709C258.767 796.055 258.949 796.388 259.195 796.697C259.415 796.973 259.635 797.174 259.862 797.288C260.076 797.395 260.345 797.451 260.662 797.451L288.685 797.451C288.924 797.451 289.133 797.388 289.316 797.306C289.536 797.193 289.755 796.986 289.98 796.703C290.244 796.363 290.439 796.004 290.565 795.633L290.565 795.563C290.672 795.205 290.728 794.799 290.728 794.344L290.728 668.326C290.728 667.842 290.665 667.413 290.539 667.035C290.414 666.664 290.219 666.304 289.955 665.964L289.879 665.863C289.684 665.637 289.489 665.467 289.288 665.36C289.106 665.266 288.898 665.216 288.659 665.216L260.635 665.216L260.669 665.183ZM215.123 792.32C216.984 793.853 219.054 795.008 221.33 795.784C223.449 796.506 225.765 796.9 228.271 796.964L246.168 782.106L246.164 782.1C246.522 781.824 246.798 781.541 246.989 781.266L247.052 781.191C247.184 780.977 247.278 780.756 247.328 780.531C247.397 780.21 247.429 779.891 247.41 779.588L247.41 779.525C247.41 779.255 247.334 778.984 247.24 778.73C247.146 778.484 247.008 778.24 246.825 778.008C246.637 777.769 246.404 777.543 246.135 777.346C245.896 777.17 245.626 777.038 245.33 776.95C244.997 776.85 244.606 776.805 244.16 776.805C243.645 776.805 243.176 776.623 242.809 776.315L241.721 775.538L241.57 775.418L240.351 774.376C239.867 773.961 239.615 773.369 239.615 772.777L239.61 737.092C239.61 729.672 238.666 723.382 236.782 718.229C234.943 713.199 232.137 709.118 228.367 705.993C226.457 704.412 224.295 703.046 221.887 701.895C219.425 700.723 216.698 699.765 213.707 699.018C210.659 698.256 207.334 697.685 203.735 697.305C200.125 696.921 196.192 696.733 191.939 696.733C189.278 696.733 186.745 696.84 184.34 697.066C181.929 697.286 179.545 697.626 177.201 698.086C174.843 698.545 172.557 699.082 170.351 699.697C168.158 700.307 165.982 701.011 163.821 701.806C161.561 702.698 159.592 703.519 157.921 704.268C156.238 705.02 154.707 705.764 153.33 706.494C151.984 707.211 150.853 707.866 149.94 708.462C149.086 709.022 148.382 709.546 147.828 710.038C147.526 710.346 147.268 710.89 147.075 711.669L147.075 711.738C146.987 712.116 146.949 712.45 146.956 712.753C146.956 713.005 147.019 713.244 147.081 713.469L153.695 728.609C154.041 729.431 154.643 729.999 155.506 730.309C155.952 730.467 156.376 730.536 156.775 730.51C157.153 730.51 157.519 730.379 157.881 730.177L157.987 730.114C159.929 729.198 162.045 728.259 164.335 727.295C165.58 726.773 166.754 726.286 167.843 725.845C168.97 725.386 170.259 724.874 171.694 724.311L171.757 724.311C173.274 723.707 174.757 723.199 176.206 722.786C177.684 722.364 179.17 722.028 180.657 721.78C182.128 721.535 183.611 721.352 185.103 721.233C186.624 721.113 188.158 721.05 189.708 721.05C194.227 721.05 197.839 722.063 200.542 724.09C201.988 725.173 203.091 726.546 203.847 728.204C204.573 729.796 204.972 731.631 205.038 733.712C205.101 734.874 204.162 735.844 203 735.879L202.837 735.879L188.216 735.185C184.664 735.015 181.276 735.097 178.055 735.417C174.868 735.738 171.834 736.303 168.953 737.115C163.192 738.735 158.028 741.046 153.47 744.045C148.924 747.17 145.526 750.711 143.28 754.662C141.059 758.568 139.948 762.921 139.948 767.72C139.948 772.271 140.685 776.326 142.156 779.887C143.611 783.415 145.804 786.498 148.733 789.131C154.655 794.453 163.381 797.114 174.913 797.114C180.872 797.114 186.708 796.273 192.421 794.594C195.288 793.753 198.101 792.784 200.853 791.695C203.627 790.597 206.267 789.406 208.768 788.13C209.662 787.671 210.736 787.917 211.348 788.665C211.58 788.948 211.85 789.244 212.142 789.551C212.4 789.822 212.677 790.085 212.971 790.357L213.072 790.451C213.767 791.061 214.473 791.669 215.163 792.286L215.123 792.32ZM198.443 771.804C196.417 772.604 194.282 773.205 192.044 773.61C189.803 774.013 187.502 774.214 185.145 774.214C181.874 774.214 179.345 773.78 177.564 772.904C175.293 771.792 174.156 770.073 174.156 767.751C174.156 760.658 183.737 757.11 202.898 757.11L203.42 757.11C204.584 757.11 205.53 758.057 205.53 759.223L205.53 767.403C205.53 768.328 204.933 769.114 204.108 769.4L201.65 770.465C200.69 770.886 199.625 771.328 198.459 771.795L198.443 771.804ZM455.757 702.133C455.757 701.322 455.467 700.63 454.896 700.056C454.594 699.754 454.28 699.541 453.948 699.401C453.621 699.262 453.242 699.199 452.822 699.199L423.056 699.199C422.22 699.199 421.482 699.501 420.844 700.101C420.529 700.396 420.302 700.711 420.155 701.039C420.017 701.359 419.942 701.723 419.942 702.135L419.942 762.013C419.942 762.909 419.382 763.677 418.59 763.982C417.968 764.29 417.397 764.561 416.87 764.791C416.248 765.068 415.573 765.345 414.856 765.627C413.751 766.061 412.583 766.554 411.357 767.109C411.124 767.304 410.854 767.442 410.56 767.53C409.612 767.876 408.747 768.174 407.968 768.407C407.062 768.677 406.221 768.892 405.449 769.042C404.677 769.199 403.965 769.312 403.316 769.393C402.631 769.482 402.014 769.519 401.469 769.519C398.458 769.519 396.198 768.206 394.686 765.581C393.392 763.334 392.743 760.111 392.743 755.92L392.743 702.136C392.743 701.721 392.673 701.359 392.535 701.04C392.39 700.713 392.164 700.398 391.849 700.101C391.516 699.787 391.17 699.554 390.809 699.411C390.457 699.273 390.063 699.201 389.637 699.201L359.871 699.201C359.034 699.201 358.297 699.503 357.66 700.103C357.346 700.399 357.114 700.713 356.973 701.04C356.834 701.361 356.758 701.725 356.758 702.137L356.758 763.579C356.758 769.182 357.426 774.086 358.761 778.284C360.071 782.401 362.031 785.874 364.639 788.696C367.221 791.493 370.46 793.595 374.35 794.998C378.327 796.433 383.017 797.151 388.414 797.151C394.796 797.151 400.574 796.26 405.745 794.481C408.397 793.57 410.994 792.488 413.535 791.239C416.091 789.983 418.653 788.527 421.22 786.873C422.198 786.243 423.501 786.527 424.131 787.508C424.194 787.608 424.25 787.715 424.3 787.828L427.025 793.276C427.088 793.395 427.131 793.521 427.163 793.641C427.163 793.747 427.257 793.859 427.352 793.966C427.509 794.142 427.735 794.318 428.026 794.494C428.379 794.702 428.713 794.853 429.028 794.947C429.305 795.035 429.577 795.073 429.836 795.073L452.812 795.073C453.621 795.073 454.313 794.783 454.887 794.212C455.176 793.929 455.39 793.608 455.527 793.254C455.671 792.883 455.747 792.45 455.747 791.962L455.747 702.148L455.757 702.133ZM567.169 795.058C568.005 795.058 568.744 794.756 569.38 794.156C569.682 793.873 569.908 793.553 570.052 793.206C570.203 792.848 570.278 792.427 570.278 791.948L570.278 732.245C570.278 726.343 569.606 721.178 568.266 716.756C566.95 712.417 564.982 708.761 562.363 705.791C559.778 702.857 556.513 700.655 552.574 699.186C548.545 697.685 543.778 696.933 538.273 696.933C532.107 696.933 526.208 697.882 520.578 699.777C517.752 700.729 515.039 701.866 512.439 703.185C509.851 704.501 507.38 705.998 505.03 707.677C504.084 708.351 502.768 708.13 502.094 707.18L502.006 707.048L498.067 700.545C497.96 700.432 497.828 700.318 497.677 700.205C497.432 700.016 497.13 699.841 496.78 699.665C496.434 699.489 496.115 699.356 495.839 699.275C495.676 699.212 495.55 699.199 495.455 699.199L474.221 699.199C473.41 699.199 472.716 699.489 472.144 700.058C471.842 700.36 471.629 700.674 471.489 701.007C471.35 701.334 471.281 701.712 471.281 702.135L471.281 791.949C471.281 792.874 471.57 793.627 472.142 794.199C472.444 794.501 472.758 794.715 473.09 794.857C473.417 794.989 473.795 795.058 474.219 795.058L503.981 795.058C504.819 795.058 505.557 794.756 506.193 794.156C506.495 793.873 506.721 793.553 506.867 793.206C507.017 792.848 507.093 792.427 507.093 791.948L507.093 732.245C507.093 731.455 507.527 730.769 508.171 730.405C508.934 729.908 509.81 729.444 510.802 729.01C511.486 728.708 512.361 728.32 513.423 727.836C513.599 727.691 513.801 727.572 514.015 727.49C515.006 727.031 515.993 726.618 516.973 726.264C518.016 725.886 519.027 725.572 520.009 725.326C522.041 724.816 524.127 724.565 526.264 724.565C529.126 724.565 531.242 726.013 532.609 728.909C533.175 730.112 533.602 731.491 533.883 733.05C534.154 734.563 534.292 736.211 534.292 737.988L534.292 791.947C534.292 792.425 534.368 792.845 534.519 793.205C534.663 793.551 534.89 793.87 535.189 794.156C535.522 794.47 535.868 794.696 536.228 794.843L536.233 794.849C536.585 794.987 536.975 795.056 537.401 795.056L567.169 795.058ZM652.141 792.32C654 793.853 656.069 795.008 658.346 795.784C660.467 796.506 662.781 796.9 665.289 796.964L683.184 782.106C683.542 781.829 683.815 781.541 684.006 781.266L684.069 781.191C684.201 780.977 684.289 780.756 684.346 780.531C684.415 780.21 684.446 779.891 684.427 779.588L684.426 779.525C684.426 779.255 684.35 778.984 684.255 778.73C684.161 778.484 684.023 778.239 683.841 778.008C683.652 777.769 683.419 777.543 683.151 777.346C682.912 777.17 682.641 777.038 682.343 776.95C682.01 776.85 681.621 776.805 681.176 776.805C680.66 776.805 680.19 776.623 679.825 776.315L678.737 775.538L678.586 775.418L677.366 774.376C676.882 773.96 676.631 773.369 676.631 772.777L676.625 737.092C676.625 729.672 675.68 723.382 673.796 718.229C671.958 713.198 669.152 709.118 665.38 705.993C663.486 704.425 661.325 703.059 658.899 701.901C656.44 700.728 653.713 699.765 650.724 699.018C647.674 698.255 644.349 697.685 640.75 697.305C637.141 696.921 633.208 696.733 628.955 696.733C626.294 696.733 623.759 696.84 621.354 697.066C618.935 697.286 616.554 697.626 614.215 698.083C611.857 698.542 609.573 699.082 607.366 699.697C605.173 700.307 602.997 701.011 600.834 701.806C598.578 702.697 596.609 703.519 594.935 704.267C593.254 705.02 591.722 705.764 590.346 706.494C588.998 707.211 587.868 707.866 586.956 708.462C586.102 709.022 585.396 709.546 584.843 710.038C584.535 710.346 584.283 710.89 584.089 711.669L584.089 711.738C584.001 712.116 583.963 712.45 583.969 712.753C583.969 713.005 584.032 713.244 584.095 713.469L590.706 728.609C591.052 729.431 591.657 729.997 592.518 730.309C592.964 730.466 593.39 730.536 593.789 730.51C594.167 730.51 594.532 730.378 594.894 730.177L595.001 730.114C596.941 729.198 599.059 728.259 601.349 727.295C602.594 726.773 603.766 726.286 604.857 725.845C605.984 725.386 607.271 724.874 608.708 724.311L608.771 724.311C610.286 723.707 611.769 723.199 613.216 722.786C614.698 722.364 616.182 722.028 617.669 721.78C619.141 721.535 620.623 721.352 622.115 721.233C623.635 721.113 625.172 721.05 626.718 721.05C631.238 721.05 634.851 722.063 637.554 724.09C639 725.173 640.103 726.546 640.859 728.204C641.584 729.796 641.982 731.631 642.05 733.712C642.113 734.874 641.173 735.844 640.013 735.879L639.849 735.879L625.228 735.185C621.675 735.015 618.286 735.097 615.067 735.417C611.879 735.738 608.844 736.303 605.965 737.115C600.202 738.735 595.04 741.046 590.479 744.045C585.936 747.17 582.538 750.71 580.291 754.662C578.072 758.568 576.961 762.921 576.961 767.72C576.961 772.271 577.696 776.326 579.165 779.887C580.624 783.415 582.817 786.498 585.746 789.131C591.666 794.451 600.391 797.114 611.923 797.114C617.884 797.114 623.72 796.273 629.431 794.594C632.3 793.753 635.111 792.784 637.865 791.695C640.639 790.597 643.278 789.406 645.779 788.13C646.668 787.671 647.733 787.917 648.349 788.652C648.625 788.973 648.889 789.275 649.154 789.553C649.405 789.823 649.682 790.088 649.983 790.359L650.083 790.453C650.778 791.063 651.485 791.67 652.174 792.287L652.141 792.32ZM635.46 771.804C633.434 772.604 631.298 773.205 629.06 773.61C626.821 774.013 624.521 774.214 622.161 774.214C618.889 774.214 616.362 773.78 614.58 772.904C612.311 771.791 611.175 770.073 611.175 767.751C611.175 760.658 620.754 757.11 639.915 757.11L640.437 757.11C641.603 757.11 642.55 758.057 642.55 759.223L642.55 767.403C642.55 768.328 641.953 769.114 641.127 769.4L638.668 770.465C637.707 770.886 636.644 771.328 635.477 771.795L635.46 771.804Z" fill="white"/>
<path d="M388.74 369.648C387.952 369.095 387.225 368.65 386.538 368.309C385.859 367.976 385.221 367.743 384.608 367.616C376.158 365.887 368.314 364.471 361.112 363.322C353.057 362.04 345.799 361.09 339.398 360.413C331.814 359.61 325.433 359.183 320.33 359.028C314.214 358.839 309.94 359.027 307.646 359.436C307.174 359.518 306.708 359.656 306.317 359.952C305.927 360.247 305.602 360.717 305.397 361.463C305.17 362.3 305.082 363.464 305.208 365.077C305.334 366.689 305.661 368.746 306.268 371.373C306.539 371.518 306.784 371.644 307.001 371.744C307.234 371.851 307.441 371.939 307.63 371.996C307.812 372.058 307.976 372.102 308.12 372.128C308.259 372.128 308.384 372.128 308.497 372.128C308.969 372.128 309.531 372.19 310.212 372.323C310.884 372.461 311.661 372.649 312.577 372.882C316.833 373.941 324.176 375.775 336.681 375.792C340.956 375.892 345.527 375.987 350.003 376.075L369.789 376.458L374.853 376.565C375.777 376.565 376.646 376.496 377.505 376.408C378.5 376.307 379.483 376.2 380.544 376.257C381.608 376.32 382.748 376.534 384.055 377.067C384.118 377.067 384.125 377.066 384.162 377.129C384.225 377.129 384.231 377.192 384.256 377.199C384.571 377.5 384.823 377.809 385 378.128C385.189 378.461 385.301 378.806 385.352 379.155C385.427 379.677 385.354 380.202 385.157 380.721C384.95 381.255 384.61 381.785 384.156 382.293C383.741 382.758 383.228 383.209 382.642 383.638C382.044 384.079 381.362 384.495 380.621 384.886C378.795 385.849 376.591 386.631 374.353 387.084C372.276 387.505 370.163 387.643 368.281 387.379C366.295 387.109 364.938 386.789 363.94 386.465C362.938 386.144 362.293 385.821 361.732 385.541C360.838 385.095 360.175 384.76 358.313 384.764C356.421 384.766 353.305 385.11 347.505 386.017L344.991 386.42C338.188 387.521 331.067 388.677 324.119 387.345C322.069 386.949 320.379 386.043 318.637 385.106C317.525 384.509 316.388 383.895 315.167 383.427C313.785 382.899 312.702 382.737 311.735 382.769C310.768 382.832 314.876 383.033 313.944 383.278C313.291 383.448 312.605 383.637 311.815 383.775C311.35 383.964 310.9 384.064 310.453 384.071C310 384.073 309.544 383.977 309.082 383.769C308.642 383.574 308.2 383.272 307.738 382.867C307.285 382.465 306.804 381.954 306.29 381.325C305.396 380.225 299.56 379.119 298.765 377.985C297.968 376.849 297.234 375.681 296.593 374.462C295.95 373.232 295.404 371.95 294.988 370.601C293.091 368.281 293.012 364.369 288.244 359.782C287.485 359.223 286.71 358.558 285.979 357.815C285.313 357.136 284.68 356.386 284.128 355.588C283.618 354.857 283.174 354.078 282.83 353.269C282.51 352.52 282.271 351.739 282.145 350.942C281.8 348.769 281.862 347.245 282.233 346.225C282.617 345.166 283.326 344.641 284.235 344.494C285.551 344.287 287.283 344.991 289.036 346.017C290.77 347.033 292.524 348.358 293.91 349.406C294.94 350.185 295.758 350.802 296.111 350.963C297.814 351.12 300.327 350.786 303.175 350.409C305.015 350.164 306.994 349.897 308.991 349.735C310.998 349.572 313.036 349.509 314.99 349.654C318.081 349.893 321.186 350.1 324.293 350.283C327.418 350.471 330.536 350.641 333.652 350.811C343.853 351.364 354.062 351.919 363.801 353.051C373.544 354.185 382.818 355.895 391.143 358.763L392.018 359.071L392.83 359.348C394.135 359.782 395.399 360.208 396.574 360.841C397.757 361.475 398.85 362.321 399.8 363.599C400.379 364.378 400.771 365.194 400.989 366.027C401.222 366.911 401.259 367.812 401.14 368.701C401.014 369.624 400.713 370.539 400.262 371.408C399.803 372.305 399.183 373.157 398.447 373.931C398.384 373.994 398.346 374.019 398.283 374.051C398.221 374.051 398.158 374.113 398.088 374.113L394.94 374.434C394.865 374.434 394.783 374.434 394.708 374.434C394.639 374.434 394.569 374.371 394.507 374.321C393.365 373.323 392.322 372.429 391.358 371.638C390.398 370.85 389.526 370.175 388.723 369.617L388.74 369.648ZM309.04 391.997C309.933 392.544 310.361 395.908 313.106 399.448L313.289 399.769C315.81 404.113 322.11 406.064 328.922 406.327C335.798 406.591 343.162 405.148 347.731 402.707L348.265 402.411C352.184 400.138 359.846 397.058 365.568 396.642C367.128 396.529 368.556 396.643 369.736 396.963C370.968 397.328 371.936 397.979 372.522 398.99C372.855 399.556 373.056 400.236 373.113 401.031C373.113 401.182 373.05 401.333 372.918 401.415C370.754 402.731 365.531 404.469 361.8 405.708C360.576 406.116 359.515 406.47 358.754 406.747C348.738 413.693 337.767 415.715 327.314 413.628C316.413 411.451 311.056 404.796 302.97 394.597C301.789 393.104 301.591 391.876 301.964 390.976C302.203 390.391 302.687 389.953 303.291 389.684C303.863 389.426 304.555 389.319 305.258 389.369C306.773 389.476 308.375 390.318 309.04 391.997Z" fill="#5E3B3C"/>
</svg>
